<?xml version="1.0" standalone="no"?>
<!DOCTYPE svg PUBLIC "-//W3C//DTD SVG 1.1//EN" "http://www.w3.org/Graphics/SVG/1.1/DTD/svg11.dtd" >
<svg xmlns="http://www.w3.org/2000/svg">
<metadata></metadata>
<defs>
<font id="chino_displayregular" horiz-adv-x="1345" >
<font-face units-per-em="2048" ascent="1638" descent="-410" />
<missing-glyph horiz-adv-x="532" />
<glyph horiz-adv-x="2048" />
<glyph horiz-adv-x="2048" />
<glyph unicode="&#xd;" horiz-adv-x="2048" />
<glyph unicode=" "  horiz-adv-x="532" />
<glyph unicode="&#x09;" horiz-adv-x="532" />
<glyph unicode="&#xa0;" horiz-adv-x="532" />
<glyph unicode="!" horiz-adv-x="462" d="M184 25q0 22 11.5 32.5t40.5 10.5q18 0 30.5 -11.5t12.5 -31.5q0 -48 -50 -48q-45 0 -45 48zM211 352v1080h41v-1080h-41z" />
<glyph unicode="#" horiz-adv-x="1347" d="M123 461v41h280l109 477h-266v41h274l105 457l41 -9l-103 -448h328l104 457l41 -9l-102 -448h291v-41h-299l-109 -477h285v-41h-293l-109 -479l-41 8l107 471h-328l-108 -479l-41 8l106 471h-272zM446 502h328l109 477h-328z" />
<glyph unicode="$" horiz-adv-x="1243" d="M92 174l31 29q7 -8 20.5 -20.5t60 -46t98 -59.5t132.5 -49.5t166 -27.5v754q-60 19 -98 32t-90.5 34t-85.5 40.5t-70 47.5t-57.5 58.5t-34.5 71t-14 86.5q0 162 123.5 256.5t324.5 94.5h2v165h41v-167q68 -4 135.5 -21t115.5 -38.5t85.5 -42.5t56.5 -35l19 -15l-27 -31 q-6 5 -18 14t-51.5 31.5t-81.5 41t-106 35t-128 20.5v-646q71 -23 108.5 -35.5t100.5 -37.5t98 -46t79.5 -54t67.5 -68t39.5 -82.5t16.5 -102.5q0 -78 -30.5 -148.5t-90.5 -128t-160.5 -92t-228.5 -34.5v-158h-41v160q-90 4 -175.5 28t-143 55t-102.5 61t-66 51zM190 1124 q0 -45 14 -83t45.5 -69t63.5 -53.5t86.5 -46t94.5 -37.5t106 -36v635h-2q-183 0 -295.5 -83.5t-112.5 -226.5zM641 -2q118 0 210 31t146.5 83t82.5 115t28 133q0 37 -9 71t-22 60.5t-38 52t-47.5 44t-59.5 38.5t-64.5 32.5t-73 29t-75 26t-78.5 25.5v-741z" />
<glyph unicode="%" horiz-adv-x="1417" d="M123 1188q0 105 74.5 180.5t175.5 75.5q105 0 177.5 -68.5t72.5 -187.5q0 -121 -72.5 -190.5t-177.5 -69.5q-101 0 -175.5 77t-74.5 183zM164 1188q0 -90 62.5 -154.5t146.5 -64.5q88 0 148.5 58.5t60.5 160.5q0 100 -60.5 157.5t-148.5 57.5q-84 0 -146.5 -63.5 t-62.5 -151.5zM248 0l817 1475q-2 0 35 -21l-815 -1472zM766 264q0 113 78.5 193t185.5 80q108 0 186 -80t78 -193q0 -115 -78 -194.5t-186 -79.5q-107 0 -185.5 80t-78.5 194zM807 264q0 -97 66.5 -165t156.5 -68q92 0 157.5 68t65.5 165q0 96 -66 164t-157 68 q-90 0 -156.5 -68t-66.5 -164z" />
<glyph unicode="&#x26;" horiz-adv-x="1900" d="M123 492q0 210 141.5 351.5t349.5 141.5q29 0 58 -2.5t43 -4.5l14 -3q-27 55 -27 133q0 154 110 260.5t284 106.5q176 0 280.5 -104t104.5 -259q0 -65 -21.5 -117.5t-54 -82t-66 -45t-63.5 -15.5q-31 0 -44.5 13t-11.5 25l3 13q16 -10 43 -10q61 0 117.5 57t56.5 162 q0 136 -95 229t-249 93t-253.5 -95.5t-99.5 -230.5q0 -29 12.5 -71t24.5 -69l13 -28l-19 -27q-58 31 -160 31q-189 0 -317.5 -129.5t-128.5 -322.5q0 -100 28.5 -183.5t75.5 -139.5t110.5 -95t131.5 -56.5t139 -17.5q79 0 156 20t137.5 53.5t110.5 68.5t88.5 74.5t58 61.5 t31.5 39q-110 117 -214 186.5t-208 69.5q-16 0 -29.5 -2.5t-18.5 -4.5l-5 -3q-1 2 -1.5 5.5t0.5 12.5t5 15.5t16.5 12t32.5 5.5q74 0 150.5 -34t143 -88t131 -119.5t121.5 -131t106.5 -119.5t94.5 -88t78 -34q100 0 99 144v6q5 0 12 -1t18 -11t11 -27q0 -11 -2 -25.5 t-10.5 -38.5t-22.5 -42t-41.5 -32t-63.5 -14q-34 0 -68.5 17t-74.5 55t-65 66t-72 83q-13 15 -44.5 51t-49.5 56q-23 -30 -52 -61.5t-89.5 -82.5t-125.5 -89t-157.5 -66.5t-186.5 -28.5q-78 0 -152 19t-143 61.5t-121 103.5t-83 151t-31 198z" />
<glyph unicode="'" horiz-adv-x="286" d="M123 1065v369h41v-369h-41z" />
<glyph unicode="(" horiz-adv-x="768" d="M123 516q0 108 17 210t46 183t67 155t79.5 130t83 103.5t79.5 80t67 55.5t46 33l17 11l20 -35q-10 -6 -27.5 -17.5t-67.5 -53t-95 -89.5t-100.5 -129t-95.5 -169.5t-67.5 -212t-27.5 -255.5q0 -104 16.5 -202.5t44.5 -177t64 -150.5t75.5 -126t79.5 -100.5t76 -78.5 t64 -54t44 -33l17 -10l-20 -35q-10 6 -28.5 18t-70.5 56t-99.5 95t-105.5 135.5t-99.5 177t-70 220.5t-28.5 265z" />
<glyph unicode=")" horiz-adv-x="768" d="M123 -416q10 6 27.5 17.5t67.5 53.5t95 91t100.5 130.5t95.5 171t67.5 213t27.5 255.5q0 104 -16.5 202.5t-44.5 176.5t-64 149.5t-75.5 125t-79.5 99.5t-76 77.5t-64 53.5t-44 32l-17 10l20 35q10 -6 28.5 -18t70.5 -55t99.5 -93.5t105.5 -134t99.5 -176t70 -220 t28.5 -264.5t-27.5 -264.5t-72 -221.5t-98 -176t-107 -136.5t-98 -94t-72.5 -57.5l-27 -17z" />
<glyph unicode="+" horiz-adv-x="1036" d="M123 672v39h375v354h41v-354h374v-39h-374v-357h-41v357h-375z" />
<glyph unicode="," horiz-adv-x="462" d="M180 -244q7 9 18 25.5t29.5 63t18.5 89.5q0 37 -13 70t-25 48l-13 14l30 26q7 -7 17.5 -19t27.5 -53.5t17 -85.5q0 -53 -20.5 -105.5t-40.5 -78.5l-21 -26z" />
<glyph unicode="-" horiz-adv-x="749" d="M123 698l500 27l4 -41l-500 -27z" />
<glyph unicode="." horiz-adv-x="462" d="M184 25q0 22 11.5 32.5t40.5 10.5q18 0 30.5 -11.5t12.5 -31.5q0 -48 -50 -48q-45 0 -45 48z" />
<glyph unicode="/" horiz-adv-x="622" d="M123 -10l336 1487l41 -9l-336 -1486z" />
<glyph unicode="0" horiz-adv-x="1171" d="M72 508q0 260 136 408.5t380 148.5q243 0 377.5 -148.5t134.5 -408.5t-134 -404.5t-378 -144.5q-245 0 -380.5 144.5t-135.5 404.5zM113 508q0 -240 125 -374t350 -134q224 0 347.5 134t123.5 374q0 241 -124 378.5t-347 137.5q-224 0 -349.5 -137.5t-125.5 -378.5z" />
<glyph unicode="1" horiz-adv-x="1024" d="M123 0v41h389v940q-40 -2 -81 -11.5t-84.5 -29t-73 -58t-35.5 -89.5q-17 -3 -27 12t-4 33q19 58 63.5 98t101 57t99 23t82.5 6v-981h389v-41h-819z" />
<glyph unicode="2" horiz-adv-x="1134" d="M123 729q0 148 123.5 242t306.5 94q112 0 198 -29.5t136.5 -81t76 -115t25.5 -137.5q0 -88 -54.5 -178.5t-130.5 -159.5t-181 -138t-181 -109t-155 -76h745v-41h-854v37q10 4 27 11t69.5 31t103.5 49.5t120.5 65.5t129 80.5t120.5 92.5t103.5 104t69.5 112t27 119 q0 65 -23 121.5t-68.5 102t-123.5 72t-180 26.5q-165 0 -277 -81.5t-112 -207.5q0 -50 17 -88t44.5 -58.5t56 -30t56.5 -9.5q12 0 23 2.5t15 4.5l5 3q1 -2 1.5 -5.5t-0.5 -12.5t-5 -15.5t-16.5 -12t-32.5 -5.5q-30 0 -63.5 12t-66.5 36t-54 69t-21 104z" />
<glyph unicode="3" horiz-adv-x="1093" d="M139 -410q115 0 256 36.5t269.5 98.5t215.5 157.5t87 201.5q0 73 -33.5 127.5t-86.5 83t-118 46.5t-129.5 21t-117.5 2.5t-86 -4.5l-34 -4l-6 45q11 1 29 2.5t71 11t101.5 23t107 40.5t101 61.5t71.5 88t29 117.5q0 115 -85 197t-240 82q-79 0 -143.5 -22.5t-99.5 -54 t-58.5 -63.5t-31.5 -54l-7 -23l-37 14q1 5 4.5 14t16.5 34t30.5 48t48.5 51.5t68 48.5t91.5 34t117.5 14q169 0 267.5 -87t98.5 -226q0 -65 -23.5 -120t-61 -91t-82.5 -64t-90 -43.5t-82.5 -25t-61.5 -12.5l-23 -3q11 1 30 2.5t74 1t105 -7.5t111 -27.5t105 -53t74 -90.5 t30 -134q0 -92 -60.5 -178.5t-156.5 -149.5t-212.5 -111t-232 -72t-211.5 -24v41z" />
<glyph unicode="4" horiz-adv-x="1130" d="M123 59v961h41v-920h803v617h41v-1127h-41v469h-844z" />
<glyph unicode="5" horiz-adv-x="1050" d="M82 494v530h739v-41h-698v-442q61 6 182 6q65 0 125 -4t129 -16t127.5 -30.5t114 -50.5t93.5 -73.5t61.5 -102t23.5 -133.5q0 -93 -41 -177.5t-109.5 -147.5t-157.5 -114t-187 -83t-194.5 -49t-183.5 -17v41q83 0 175 16t185.5 45.5t178 77t150 106t104.5 137t39 165.5 q0 76 -29.5 136.5t-79 99.5t-113.5 67t-135 41t-142 20t-135 6t-113.5 -3.5t-78.5 -5.5z" />
<glyph unicode="6" horiz-adv-x="1251" d="M82 639q0 164 52 304.5t136 236t190.5 164t215 100t209.5 31.5q24 0 41 -2t34 -14t15 -34q-43 9 -90 9q-96 0 -198.5 -30t-203.5 -95t-180.5 -155.5t-129 -224t-50.5 -288.5q25 36 54 69.5t79 75.5t104.5 73t131 52t157.5 21q221 0 360.5 -125t139.5 -328 q0 -225 -149 -371.5t-371 -146.5q-115 0 -213 42.5t-173 125t-118 213.5t-43 297zM125 571q17 -276 156.5 -422.5t347.5 -146.5q204 0 341.5 135t137.5 342q0 185 -128.5 298.5t-330.5 113.5q-96 0 -183.5 -31t-144 -72.5t-103.5 -92t-66 -79.5t-27 -45z" />
<glyph unicode="7" horiz-adv-x="1167" d="M82 901q0 16 5 30t21 31t42.5 29t74.5 20.5t111 8.5h780v-41l-850 -1413l-41 28l840 1385h-727q-217 0 -217 -88q0 -6 1.5 -12t3.5 -9l1 -2q-16 -9 -30.5 0.5t-14.5 32.5z" />
<glyph unicode="8" horiz-adv-x="1323" d="M102 418q0 159 101 259t264 138q-272 56 -272 293q0 87 39 158t104 116t147.5 69t173.5 24q128 0 232 -41t169.5 -126.5t65.5 -201.5q0 -230 -274 -291q162 -40 265.5 -140.5t103.5 -256.5q0 -110 -44 -199t-120 -145t-175.5 -85.5t-213.5 -29.5q-123 0 -223.5 26.5 t-178.5 80.5t-121 143.5t-43 208.5zM143 418q0 -108 40 -190t112 -131t165.5 -73t207.5 -24q143 0 257 46t184.5 142.5t70.5 229.5q0 72 -26 133t-71 104t-106 74.5t-128.5 47.5t-141.5 20h-48q-77 0 -150.5 -14t-140 -44t-116.5 -73.5t-79.5 -107t-29.5 -140.5zM236 1108 q0 -268 426 -268q29 0 45 -2q378 15 378 268q0 153 -122.5 240.5t-303.5 87.5q-111 0 -205.5 -36t-156 -112t-61.5 -178z" />
<glyph unicode="9" horiz-adv-x="1255" d="M102 586q0 211 140.5 345t363.5 134q117 0 220.5 -46t181 -130t122 -210t44.5 -278q0 -177 -53.5 -324t-138.5 -242.5t-194.5 -162t-217.5 -95t-212 -28.5q-24 0 -41 2t-34 14t-15 34q44 -9 90 -9q69 0 141.5 14t149 44.5t146 75.5t132 111.5t108 147.5t72 188.5 t26.5 229.5v5q-20 -32 -45 -64.5t-75 -78t-107 -79t-142.5 -58t-179.5 -24.5q-216 0 -349 132.5t-133 351.5zM143 586q0 -200 122 -321.5t319 -121.5q75 0 144 16t119 39.5t95.5 57.5t74 65t54 66.5t37 55.5t20.5 40q-23 249 -169.5 395t-352.5 146q-204 0 -333.5 -123 t-129.5 -315z" />
<glyph unicode=":" horiz-adv-x="462" d="M184 209q0 22 11.5 32.5t40.5 10.5q18 0 30.5 -11.5t12.5 -31.5q0 -47 -50 -47q-45 0 -45 47zM184 805q0 22 11.5 32.5t40.5 10.5q18 0 30.5 -11.5t12.5 -31.5q0 -47 -50 -47q-45 0 -45 47z" />
<glyph unicode=";" horiz-adv-x="475" d="M184 -244q7 9 18 25.5t29.5 63t18.5 89.5q0 37 -13 70t-25 48l-13 14l30 26q7 -7 17.5 -19t27.5 -53.5t17 -85.5q0 -53 -20.5 -105.5t-40.5 -78.5l-21 -26zM188 662q0 22 11.5 32.5t40.5 10.5q18 0 30.5 -11.5t12.5 -31.5q0 -48 -50 -48q-45 0 -45 48z" />
<glyph unicode="&#x3c;" horiz-adv-x="737" d="M123 502v33l461 530l30 -27q-76 -87 -225 -260t-225 -260l450 -532l-30 -27z" />
<glyph unicode="&#x3e;" horiz-adv-x="737" d="M123 -14l450 532q-76 87 -225 260t-225 260l31 27l460 -530v-33l-460 -543z" />
<glyph unicode="?" horiz-adv-x="1075" d="M123 1149q0 45 15 90t46.5 87.5t76.5 75.5t110.5 53t142.5 20q110 0 196.5 -29.5t137.5 -79t77.5 -109.5t26.5 -127q0 -63 -24.5 -122.5t-64 -106t-87.5 -90t-96 -81.5t-87.5 -73t-64 -72.5t-24.5 -72.5t22 -62.5t44 -37.5l22 -11q-2 -16 -31 -16q-25 0 -61.5 33 t-36.5 94q0 64 47.5 120t142.5 132q47 37 74 59.5t67 63t62 73.5t38.5 78.5t16.5 91.5q0 59 -24 112t-70.5 96.5t-124.5 69.5t-178 26q-85 0 -154.5 -26.5t-110.5 -69t-63 -91.5t-22 -98q0 -47 17.5 -84t45 -57.5t57 -30.5t56.5 -10q56 0 94.5 24.5t54.5 52.5q4 6 6 14l3 12 v5l8 -4q29 -18 6 -61q-16 -27 -62 -55.5t-110 -28.5q-27 0 -55 7.5t-57.5 24.5t-52.5 42t-37.5 64t-14.5 85zM494 25q0 23 11.5 33t39.5 10q18 0 30.5 -11.5t12.5 -31.5q0 -48 -49 -48q-45 0 -45 48z" />
<glyph unicode="@" horiz-adv-x="1998" d="M123 551q0 212 69.5 388t190.5 292.5t282.5 180t346.5 63.5q254 0 450 -100.5t305 -286t109 -426.5q0 -117 -20.5 -222.5t-56.5 -184.5t-82.5 -137t-100.5 -88t-109 -30q-14 0 -28.5 2.5t-38 14t-40.5 31.5t-31.5 60t-16.5 95q-28 -39 -65 -76t-92.5 -78t-129.5 -65.5 t-154 -24.5q-138 0 -238.5 65t-149 170t-48.5 236q0 123 34 227.5t93.5 178.5t139.5 126.5t171.5 77.5t190.5 25q125 0 246 -51q2 -1 5 -4t10 -18.5t13 -38t10.5 -67t4.5 -100.5v-548q0 -63 11.5 -106t30.5 -62t36 -26t36 -7q47 0 94.5 28.5t89.5 83.5t74 129.5t51 174 t19 209.5q0 229 -104 405t-290.5 271.5t-428.5 95.5q-176 0 -330.5 -61t-269.5 -172.5t-181.5 -279.5t-66.5 -370q0 -94 17 -182t41.5 -147.5t49 -105.5t41.5 -68l17 -21q11 -13 21.5 -21.5t14.5 -11.5l5 -2q-11 -17 -29 -17q-21 0 -43 25q-7 8 -19 24t-42.5 69.5t-53.5 113 t-42 153.5t-19 191zM516 430q0 -120 43.5 -216t134.5 -155t217 -59q77 0 149.5 26.5t119.5 61.5t88.5 79t58 68t25.5 41v510q0 75 -6 123t-12 59l-5 11q-105 45 -225 45q-116 0 -220.5 -38t-187.5 -110t-131.5 -187.5t-48.5 -258.5z" />
<glyph unicode="A" d="M57 18q13 -8 27 -8q27 0 49.5 14.5t40.5 48.5t31.5 68t28 95t24 106t24.5 123q18 96 28.5 147.5t33.5 147.5t42.5 152t53 139t68.5 133t85.5 108t107 89.5t130.5 53t158 21.5l305 -1456h-41q-5 23 -106 502h-819q-2 -9 -5.5 -29.5t-5.5 -30.5q-11 -63 -17.5 -95.5 t-18 -85.5t-20 -81.5t-22 -67.5t-27.5 -59.5t-32.5 -41.5t-40 -29.5t-47.5 -8.5q-24 0 -34 15q-6 8 -5 16q0 7 4 14zM336 543h803q-35 166 -100 475.5t-83 394.5q-68 -2 -128.5 -21t-109 -48.5t-91.5 -75.5t-75.5 -94t-62.5 -112t-50.5 -121.5t-41 -131t-33.5 -133 t-28 -133.5z" />
<glyph unicode="B" horiz-adv-x="1296" d="M88 1409q-4 8 -4 15q0 8 4 16q10 14 33 14q41 0 78.5 -54.5t38.5 -166.5q7 9 20 24t59 53.5t99 68t139 53.5t178 24q177 0 288.5 -98.5t111.5 -239.5q0 -68 -29 -129.5t-68 -99.5t-84.5 -68.5t-71.5 -42t-36 -14.5q13 -3 26 -6.5t52.5 -17.5t71.5 -30.5t73 -47 t69.5 -65.5t48 -87t19.5 -111q0 -81 -26.5 -149t-74 -115t-108 -82t-133.5 -55t-145.5 -29.5t-147.5 -9.5q-97 0 -189.5 10.5t-136.5 20.5l-44 10v1186q0 122 -26 175.5t-62 53.5q-6 0 -12 -1.5t-9 -3.5zM240 31q137 -31 329 -31q86 0 166 12t159.5 41t138 73.5t94.5 114.5 t36 158q0 67 -28.5 124t-74.5 96.5t-104.5 67.5t-118.5 41t-116 13h-481v-710zM240 780l538 -2q7 2 18 6t44 18.5t63 32t66.5 46.5t62.5 62t44 79t18 96q0 120 -105 210.5t-256 90.5q-87 0 -170 -25t-139 -60.5t-99.5 -71.5t-64.5 -61l-20 -25v-396z" />
<glyph unicode="C" horiz-adv-x="1304" d="M102 702q0 170 53 315.5t144 245t215 156t264 56.5q117 0 214.5 -41.5t158.5 -126t61 -197.5q0 -56 -18 -101t-44 -71t-57.5 -43.5t-55 -24t-38.5 -6.5q-25 0 -37 11t-11 23l1 11q15 -8 31 -8q17 0 39 5.5t49 20.5t48.5 37.5t36.5 60.5t15 85q0 149 -114.5 236.5 t-278.5 87.5q-131 0 -247.5 -53.5t-202 -148t-135.5 -232t-50 -298.5q0 -153 46.5 -285t126.5 -223t189 -142.5t232 -51.5q85 0 162 16.5t126.5 40.5t86.5 48t54 41l16 16l30 -27q-6 -7 -18.5 -19t-56 -42.5t-94 -53.5t-133.5 -42t-173 -19q-131 0 -247.5 55t-202 151 t-135.5 235.5t-50 301.5z" />
<glyph unicode="D" horiz-adv-x="1486" d="M88 1409q-4 8 -4 15q0 8 4 16q10 14 33 14q41 0 78.5 -54.5t38.5 -166.5q19 24 42 48t67 57.5t93 58t121 42t150 17.5q143 0 264.5 -45.5t213 -132.5t143.5 -222.5t52 -305.5q0 -156 -43.5 -287t-119 -223t-179 -156t-223 -94.5t-250.5 -30.5q-97 0 -189.5 10.5 t-136.5 20.5l-44 10v1186q0 122 -26 175.5t-62 53.5q-6 0 -12 -1.5t-9 -3.5zM240 31q137 -31 329 -31q157 0 294.5 47t245.5 137.5t171 236t63 329.5q0 160 -49 288t-134.5 209.5t-200 124.5t-248.5 43q-75 0 -146.5 -20.5t-121 -48.5t-95 -65t-68.5 -62t-40 -48v-1140z" />
<glyph unicode="E" horiz-adv-x="1130" d="M154 0v1434h864v-41h-823v-615h544v-41h-544v-696h821v-41h-862z" />
<glyph unicode="F" horiz-adv-x="1038" d="M154 0v1434h864v-41h-823v-656h544v-41h-544v-696h-41z" />
<glyph unicode="G" horiz-adv-x="1388" d="M102 672q0 197 51.5 352.5t141.5 252.5t206 147.5t249 50.5q159 0 274 -66t164 -174q27 -60 27 -109q0 -25 -7 -47q-8 -27 -25.5 -39t-37.5 0q2 2 6 6.5t11.5 20t10.5 34t-2 49t-20 64.5q-45 99 -149.5 159.5t-251.5 60.5q-125 0 -233.5 -47.5t-192.5 -139.5t-132.5 -240 t-48.5 -335q0 -107 23 -205.5t70 -183.5t114 -148t161 -99t204 -36q68 0 132.5 18t112.5 46.5t90.5 63t71.5 69t50 63t30 46.5l10 18v329h-395v41h436l2 -694h-41q-2 25 -2 250q-6 -12 -19 -31.5t-58.5 -69.5t-98.5 -88.5t-139.5 -70t-181.5 -31.5q-148 0 -266.5 58.5 t-193 158t-114 226.5t-39.5 270z" />
<glyph unicode="H" horiz-adv-x="1499" d="M88 1409q-4 8 -4 15q0 8 4 16q10 14 33 14q16 0 30 -5t31 -21t29 -42.5t20.5 -74.5t8.5 -111v-461h1020v703h40v-1206q0 -218 89 -218q6 0 11.5 2t7.5 4l3 1q4 -8 4 -15q-1 -8 -5 -16q-10 -14 -32 -14q-16 0 -30 5t-31 21t-29 42t-20 74t-8 111v465h-1020v-698h-41v1198 q0 217 -88 217q-6 0 -12 -1.5t-9 -3.5z" />
<glyph unicode="I" horiz-adv-x="495" d="M150 1409q-5 8 -5 15.5t5 14.5q10 15 32 15q16 0 30 -5t31 -21t29 -42.5t20.5 -74.5t8.5 -111v-1200h-41v1198q0 217 -88 217q-6 0 -11.5 -1.5t-8.5 -3.5z" />
<glyph unicode="J" horiz-adv-x="999" d="M51 289q0 52 19.5 102t63.5 86.5t104 36.5q20 0 32.5 -13t5.5 -32q-20 4 -34 4q-48 0 -83.5 -30t-51 -70.5t-15.5 -83.5q0 -118 87.5 -203.5t242.5 -85.5q85 0 153 22.5t114 62t77 95t45 119.5t14 137v998h41v-998q0 -101 -25.5 -185t-77 -150.5t-139 -104t-202.5 -37.5 q-88 0 -160 28t-117.5 74.5t-69.5 105t-24 122.5z" />
<glyph unicode="K" horiz-adv-x="1337" d="M88 1397q-4 8 -4 15q0 8 4 16q10 14 33 14q16 0 30 -5t31 -21t29 -42.5t20.5 -74.5t8.5 -111v-539l897 805l28 -29l-577 -518q65 -77 137.5 -185.5t103.5 -161.5t107 -187q121 -215 166 -276q71 -97 123 -97q12 0 23.5 2t16.5 4l5 2q0 -2 2 -6q2 -5 3 -13q1 -7 -3 -13 t-15.5 -11.5t-31.5 -5.5q-52 0 -108 58t-116 160t-121.5 215t-148 250.5t-172.5 238.5l-319 -289v-592h-41v1186q0 217 -88 217q-6 0 -12 -1.5t-9 -3.5z" />
<glyph unicode="L" horiz-adv-x="1009" d="M154 0v1434h41v-1393h507q218 0 218 88q0 6 -2 12t-4 9l-1 2q16 9 30.5 -0.5t14.5 -32.5q0 -16 -5 -30t-21 -31t-42 -29t-74 -20.5t-111 -8.5h-551z" />
<glyph unicode="M" horiz-adv-x="1583" d="M154 0v1434h43l573 -906l571 906h43v-1196q0 -218 89 -218q6 0 11.5 2t7.5 4l3 1q4 -8 4 -15q-1 -8 -5 -16q-10 -14 -32 -14q-16 0 -30 5t-31 21t-29 42.5t-20.5 74.5t-8.5 111v1126l-555 -881h-38l-555 877v-1358h-41z" />
<glyph unicode="N" horiz-adv-x="1439" d="M88 27q9 -7 23 -7q88 0 88 218v1196h43l1003 -1364v1364h41v-1434h-43l-1003 1362v-1126q0 -63 -8.5 -111t-20.5 -74.5t-29 -42.5t-31 -21t-30 -5q-23 0 -33 14q-5 7 -4 16q0 7 4 15z" />
<glyph unicode="O" horiz-adv-x="1447" d="M102 719q0 340 170 548t455 208q188 0 329 -95t215.5 -266t74.5 -395q0 -225 -74.5 -397t-215.5 -267.5t-329 -95.5q-285 0 -455 209t-170 551zM143 719q0 -213 71 -375.5t203.5 -253t309.5 -90.5q175 0 307 90.5t201.5 253t69.5 375.5q0 322 -156.5 518.5t-421.5 196.5 q-177 0 -309.5 -89.5t-203.5 -251.5t-71 -374z" />
<glyph unicode="P" horiz-adv-x="1187" d="M88 1409q-4 8 -4 15q0 8 4 16q10 14 33 14q40 0 75 -48.5t42 -166.5q171 219 393 219q114 0 208.5 -40t153.5 -105.5t91 -146t32 -165.5q0 -248 -161 -398t-414 -150q-158 0 -301 61v-514h-41v1186q0 122 -26 175.5t-62 53.5q-6 0 -12 -1.5t-9 -3.5zM240 557 q146 -63 301 -63q237 0 385.5 138.5t148.5 368.5q0 78 -29 151t-83 133t-140.5 96t-191.5 36q-64 0 -126.5 -22.5t-105 -53t-80 -68t-54 -60t-25.5 -37.5v-619z" />
<glyph unicode="Q" horiz-adv-x="1562" d="M82 885q0 110 47.5 216t131 190t210.5 135t274 51q146 0 270 -42.5t218 -123.5t147.5 -210.5t53.5 -293.5q0 -147 -52 -272t-134.5 -206.5t-183 -146.5t-201 -100.5t-183 -58.5t-134.5 -30l-52 -7q68 -6 169 -49t204 -99.5t205.5 -112t201 -93.5t164.5 -38q40 0 66 9 t32 17l6 9q10 -10 10 -24q0 -7 -6.5 -16t-19 -18.5t-35.5 -15.5t-53 -6q-84 0 -189.5 40t-209 99t-208 118t-217 104.5t-204.5 52.5v47q13 1 34.5 3.5t88.5 14.5t132.5 29t154 49.5t164.5 73t153.5 102.5t132 135t89 174t34.5 216q0 154 -50.5 275.5t-139 198t-205 116 t-253.5 39.5q-138 0 -257 -48t-197.5 -126t-123 -176.5t-44.5 -200.5q0 -221 120.5 -351.5t319.5 -130.5q79 0 138 21.5t87.5 53.5t41 60.5t12.5 51.5q0 7 -2 15t-4 12l-2 4h8q37 0 37 -48q0 -15 -8 -38.5t-30.5 -54.5t-56 -56.5t-91.5 -43.5t-130 -18q-218 0 -349.5 141.5 t-131.5 381.5z" />
<glyph unicode="R" horiz-adv-x="1304" d="M88 1409q-4 8 -4 15q0 8 4 16q10 14 33 14q41 0 78.5 -54.5t38.5 -166.5q7 9 20 24t59 53.5t99 68t139 53.5t178 24q177 0 288.5 -98.5t111.5 -239.5q0 -70 -25.5 -128t-66.5 -95.5t-91 -66.5t-99.5 -44t-90.5 -24.5t-66 -11.5l-26 -3q48 -31 108 -118t115 -188t109 -199 t105.5 -165.5t88.5 -72.5l39 2q0 -43 -39 -45q-54 0 -118.5 80t-126 194.5t-123.5 229t-129 195.5t-124 83h-333v-741h-41v1186q0 122 -26 175.5t-62 53.5q-6 0 -12 -1.5t-9 -3.5zM240 780h354q93 0 180.5 21.5t158.5 62.5t114 107t43 147q0 121 -101.5 211t-255.5 90 q-91 0 -175.5 -24.5t-139.5 -59.5t-97.5 -70.5t-61.5 -60.5l-19 -24v-400z" />
<glyph unicode="S" horiz-adv-x="1243" d="M92 174l31 29q8 -8 22.5 -22t65 -49.5t106.5 -62.5t144 -49t180 -22q118 0 210 31t146.5 83t82.5 115t28 133q0 95 -53 164.5t-137.5 111t-186.5 75l-204 67t-186.5 74.5t-137.5 110t-53 162q0 162 123.5 256.5t324.5 94.5q75 0 149.5 -16t127 -38.5t94.5 -45t63 -38.5 l21 -16l-27 -31q-7 6 -20.5 15.5t-57 34.5t-90.5 44t-118 34.5t-142 15.5q-183 0 -295.5 -83.5t-112.5 -226.5q0 -66 33 -118t88.5 -87t127.5 -64t151.5 -53.5t159.5 -50.5t152 -60.5t127.5 -78t88.5 -107.5t33 -145q0 -78 -30.5 -148.5t-90.5 -128t-160.5 -92t-228.5 -34.5 q-97 0 -189 22.5t-154.5 54.5t-111 63.5t-71.5 54.5z" />
<glyph unicode="T" horiz-adv-x="1128" d="M51 1393v41h1026v-41h-495v-1393h-41v1393h-490z" />
<glyph unicode="U" horiz-adv-x="1519" d="M88 1409q-4 8 -4 15q0 8 4 16q10 14 33 14q16 0 30 -5t31 -21t29 -42.5t20.5 -74.5t8.5 -111v-549q0 -651 542 -651q142 0 247.5 47.5t169.5 135t95 204.5t31 264v783h41v-783q0 -157 -33.5 -281t-102 -217.5t-182 -143.5t-266.5 -50q-583 0 -583 692v547q0 217 -88 217 q-6 0 -12 -1.5t-9 -3.5z" />
<glyph unicode="V" horiz-adv-x="1314" d="M37 1409q-4 7 -4 14q-1 8 5 16q10 15 34 15q25 0 47 -9t40 -30t32 -42.5t27.5 -60t22.5 -68t20 -82t17.5 -86t17.5 -94.5q1 -5 1 -7q17 -89 27.5 -142t32 -143t40.5 -147t49.5 -135.5t62.5 -129t77.5 -106.5t95.5 -88.5t115 -55t139 -24.5q51 241 154.5 725.5 t154.5 726.5l39 -8l-315 -1487q-133 0 -239 50t-175.5 134t-122 193.5t-85 230t-57.5 241t-45.5 230t-43 193.5t-57 134t-81.5 50q-6 0 -12.5 -2t-10.5 -4z" />
<glyph unicode="W" horiz-adv-x="1884" d="M31 1446l41 8l391 -1364l463 1344h55l463 -1344l391 1364l41 -8l-406 -1446h-47l-469 1380l-471 -1380h-47z" />
<glyph unicode="X" horiz-adv-x="1384" d="M94 1425q-2 4 -2 8q0 8 7 15q10 10 32 10q17 0 40 -14t53.5 -47.5t58.5 -66.5t70.5 -93.5t72.5 -103.5t81.5 -123t80.5 -125.5t86 -134.5l491 710l33 -22l-502 -725q70 -110 115.5 -180t108.5 -163.5t107 -151t92 -113t85 -81.5t64 -26l20 2q3 -7 3 -14q1 -6 -3 -14 q-6 -13 -25 -13h-3q-47 0 -109 52t-154 178t-148 210.5t-176 272.5q-2 3 -3 4l-486 -703l-32 23l495 715q-5 8 -14.5 23.5t-14.5 23.5q-20 32 -59 94q-65 104 -98 155.5t-87.5 134t-87 123.5t-72 86t-68.5 61.5t-52 12.5z" />
<glyph unicode="Y" horiz-adv-x="1079" d="M37 1430q-4 7 -4 14q0 8 5 16q11 15 34 15q67 0 135 -117q182 -311 348 -596l461 692l33 -24l-476 -713v-717h-41v721l-163 279q-163 280 -195 339q-55 99 -108 99q-6 0 -13.5 -2t-11.5 -4z" />
<glyph unicode="Z" horiz-adv-x="1316" d="M102 0v43q118 148 387.5 491.5t470.5 600t203 256.5h-768q-217 0 -217 -88q0 -6 1.5 -12t2.5 -9l2 -2q-16 -9 -30.5 0.5t-14.5 32.5q0 16 5 30t21 31t42.5 29t74.5 20.5t111 8.5h821v-41l-1054 -1348h1054v-41z" />
<glyph unicode="[" horiz-adv-x="645" d="M123 -410v1885h397v-41h-356v-1803h358v-41h-399z" />
<glyph unicode="\" horiz-adv-x="622" d="M123 1468l41 9l336 -1487l-41 -8z" />
<glyph unicode="]" horiz-adv-x="645" d="M123 -369h358v1803h-356v41h397v-1885h-399v41z" />
<glyph unicode="a" horiz-adv-x="1198" d="M82 430q0 123 34 227.5t93.5 178.5t139.5 126.5t171.5 77.5t190.5 25q124 0 245 -51q2 -1 5 -4t10 -18.5t13 -38t10.5 -67t4.5 -100.5v-548q0 -122 25.5 -173t62.5 -51q6 0 12 1.5t9 2.5l2 2q4 -8 4 -15t-4 -15q-10 -14 -33 -15q-19 0 -36 9t-36 32t-31.5 71t-15.5 116 q-28 -39 -65 -76t-92 -78t-129 -65.5t-154 -24.5q-138 0 -238.5 65t-149 170t-48.5 236zM123 430q0 -120 43.5 -216t134.5 -155t217 -59q77 0 149.5 26.5t119.5 61.5t88 79.5t57.5 68t25.5 40.5v510q0 75 -5.5 123t-10.5 59l-6 11q-105 45 -225 45q-116 0 -220.5 -38 t-187.5 -110t-131.5 -187.5t-48.5 -258.5z" />
<glyph unicode="b" horiz-adv-x="1140" d="M68 1491q-5 8 -5 15.5t5 14.5q10 15 32 15q16 0 30 -5t31 -21t29 -42.5t20.5 -74.5t8.5 -111v-385q180 168 391 168q190 0 319.5 -148t129.5 -389q0 -134 -46 -245t-120 -180t-163.5 -106.5t-180.5 -37.5q-115 0 -197.5 48.5t-132.5 113.5v-121h-41v1280q0 217 -88 217 q-6 0 -11.5 -1.5t-8.5 -3.5zM219 190q5 -10 16 -26.5t40.5 -47t65 -55t91 -43t117.5 -18.5q66 0 132 21t127 65.5t107.5 106t74.5 148.5t28 187q0 222 -118 359t-290 137q-60 0 -120.5 -17.5t-102.5 -39.5t-82 -52t-57 -46t-29 -29v-650z" />
<glyph unicode="c" horiz-adv-x="1118" d="M82 528q0 116 44.5 217t119 170.5t174.5 109.5t209 40q100 0 192 -40t152.5 -118.5t60.5 -175.5q0 -134 -106 -194q-29 -16 -50.5 -8.5t-21.5 25.5q57 6 97 53.5t40 123.5q0 64 -32 120.5t-84 93.5t-117 58t-131 21q-135 0 -250.5 -62t-185.5 -177t-70 -257 q0 -148 60 -267.5t176 -190t270 -70.5q59 0 120 16t105.5 39t80.5 46t55 39l18 16l28 -31q-7 -7 -20.5 -18t-56.5 -39.5t-88 -50.5t-111.5 -40t-130.5 -18q-167 0 -292.5 76.5t-190 205t-64.5 287.5z" />
<glyph unicode="d" horiz-adv-x="1198" d="M82 430q0 123 34 227.5t93.5 178.5t139.5 126.5t171.5 77.5t190.5 25q128 0 247 -39v254q0 217 -88 217q-6 0 -11.5 -1.5t-8.5 -3.5l-2 -1q-9 16 0.5 30.5t32.5 14.5q20 0 38 -9.5t37.5 -34t31 -78.5t11.5 -132v-1065q2 -197 88 -197l23 5q4 -7 4 -14t-4 -15 q-10 -14 -33 -14q-110 0 -119 221q-28 -39 -65 -76t-92 -78t-129 -65.5t-154 -24.5q-138 0 -238.5 65t-149 170t-48.5 236zM123 430q0 -120 43.5 -216t134.5 -155t217 -59q77 0 149.5 26.5t119.5 61.5t88 79.5t57.5 68t25.5 40.5v707q-109 41 -247 41q-116 0 -220.5 -38 t-187.5 -110t-131.5 -187.5t-48.5 -258.5z" />
<glyph unicode="e" horiz-adv-x="1099" d="M82 467q0 187 80 324.5t212 205.5t296 68q129 0 219 -64t90 -176q0 -56 -25.5 -101t-68.5 -76.5t-108.5 -55t-136 -37.5t-160.5 -22.5t-173 -11.5t-182 -3q-2 -16 -2 -51q0 -206 130 -336.5t357 -130.5q66 0 129 16t106 38.5t76.5 45t49.5 38.5l16 16l31 -29 q-6 -7 -18 -18t-52.5 -39.5t-84.5 -50.5t-113 -40t-140 -18q-246 0 -387 142t-141 366zM129 559q93 0 172 2.5t164 10t152 20t129 33t103 47.5t65 66t24 87q0 93 -78 146t-190 53q-138 0 -252.5 -53t-192 -159.5t-96.5 -252.5z" />
<glyph unicode="f" horiz-adv-x="815" d="M72 903v41h258v195q0 397 293 397q89 0 149 -53q21 -19 21 -39q0 -17 -9 -26l-10 -9q-4 19 -22 39q-47 47 -129 47q-252 0 -252 -356v-195h417v-41h-417v-1100q0 -63 -8.5 -111t-20.5 -74.5t-29 -42.5t-31 -21t-30 -5q-23 0 -32.5 14.5t-0.5 30.5q9 -6 23 -6q88 0 88 217 v1098h-258z" />
<glyph unicode="g" horiz-adv-x="1234" d="M82 549q0 114 44 212.5t116 164t163.5 102.5t186.5 37q76 0 145 -19.5t120 -52t82.5 -59.5t57.5 -57q8 108 42 148t75 40q23 0 32 -15q5 -7 5 -15q0 -7 -4 -15q-9 6 -23 6q-88 0 -88 -217v-397h2q0 -2 -2 -4q0 -54 1 -177.5t1 -197.5q0 -122 -33 -216t-91.5 -151.5 t-134 -87t-163.5 -29.5q-145 0 -239 77t-94 169q0 20 5.5 32.5t12.5 16.5t14.5 5.5t12.5 0.5l6 -2q-10 -16 -10 -43q0 -83 81.5 -149t210.5 -66q167 0 274 112.5t107 330.5q0 44 -1 129.5t-1 152.5q-19 -34 -42 -64t-60.5 -63.5t-80 -57.5t-103.5 -40t-129 -16 q-75 0 -147 19t-135.5 58t-111.5 94.5t-76 133.5t-28 170zM123 549q0 -104 39.5 -189t105 -137t146 -80t166.5 -28q61 0 115 13.5t93 34.5t73 50.5t55.5 56.5t39 57.5t25.5 49t14 35.5v399v4h-2q-5 8 -15.5 22.5t-47.5 50.5t-79.5 63.5t-112.5 50t-146 22.5q-88 0 -172 -34 t-150 -94.5t-106.5 -151t-40.5 -195.5z" />
<glyph unicode="h" horiz-adv-x="1228" d="M68 1491q-5 8 -5 15.5t5 14.5q10 15 32 15q16 0 30 -5t31 -21t29 -42.5t20.5 -74.5t8.5 -111v-420q32 31 71 60.5t97 64.5t131.5 56.5t147.5 21.5q78 0 143 -19t118 -60t83 -114t30 -172v-464q0 -218 88 -218l23 5q4 -7 4 -14q-1 -7 -5 -15q-10 -14 -32 -14q-16 0 -30 5 t-31 21t-29 42t-20.5 74t-8.5 111v467q0 89 -27.5 154t-76 101t-105.5 52.5t-124 16.5t-136 -21t-118.5 -49t-95 -62.5t-66 -54.5t-31.5 -32v-805h-41v1280q0 217 -88 217q-6 0 -11.5 -1.5t-8.5 -3.5z" />
<glyph unicode="i" horiz-adv-x="444" d="M119 1020q-4 8 -4 15q1 7 5 15q10 14 32 15q20 0 38 -9.5t37.5 -34t31 -78.5t11.5 -132v-811h-41v809q0 217 -88 217q-6 0 -11.5 -1.5t-7.5 -2.5zM186 1440q0 35 43 35q13 0 24 -10.5t11 -24.5q0 -39 -41 -39q-37 0 -37 39z" />
<glyph unicode="j" horiz-adv-x="501" d="M20 -412l3 13q16 -11 43 -11q89 0 152 72t63 221v1141h41v-1141q0 -89 -22 -156t-59 -104.5t-78.5 -55.5t-86.5 -18q-31 0 -44.5 13t-11.5 26zM260 1440q0 35 43 35q13 0 24 -10.5t11 -24.5q0 -39 -41 -39q-37 0 -37 39z" />
<glyph unicode="k" horiz-adv-x="1052" d="M61 1507q0 11 10.5 20t26.5 9t30 -5t31 -21t29 -42.5t20.5 -74.5t8.5 -111v-684l703 434l24 -33l-692 -428q410 -381 512 -475q104 -96 154 -96q19 0 34 10t20.5 20t4.5 13q10 -1 17 -9.5t7 -17.5q0 -18 -21 -37.5t-56 -19.5q-40 0 -77 21t-108 83q-17 14 -243.5 228 t-278.5 260v-551h-41v1280q0 217 -88 217q-6 0 -11.5 -1.5t-8.5 -3.5l-2 -1q-5 15 -5 16z" />
<glyph unicode="l" horiz-adv-x="464" d="M119 1491q-4 8 -4 15q1 8 5 16q10 14 32 14q20 0 38 -9.5t37.5 -34t31 -78.5t11.5 -132v-1282h-41v1280q0 217 -88 217q-6 0 -11.5 -1.5t-7.5 -3.5z" />
<glyph unicode="m" horiz-adv-x="1964" d="M78 1018q-4 8 -4 15t4 15q10 14 33 15q102 0 116 -199q30 31 66 60.5t91.5 64t126.5 55.5t144 21q265 0 332 -207q30 31 65 59.5t91.5 65.5t129.5 59.5t148 22.5q78 0 140 -19t111.5 -60t76.5 -113.5t27 -172.5v-464q0 -218 88 -218l22 2q4 -7 4 -14q0 -8 -4 -14 q-10 -12 -33 -12q-16 0 -30 5t-31 21t-29 42t-20 74t-8 111v467q0 172 -86.5 248t-227.5 76q-79 0 -155.5 -27t-132 -68t-86 -68.5t-48.5 -49.5q11 -60 11 -111v-700h-41v700q0 172 -86.5 248t-227.5 76q-67 0 -134 -21t-113.5 -49t-89 -62.5t-61 -54t-28.5 -32.5v-805h-41 v807q0 217 -88 217q-6 0 -11.5 -1.5t-8.5 -2.5z" />
<glyph unicode="n" horiz-adv-x="1239" d="M78 1018q-4 8 -4 15t4 15q10 14 33 15q42 0 75.5 -42.5t40.5 -158.5q34 31 71.5 59.5t97 64.5t133 57.5t147.5 21.5q78 0 143 -19t118.5 -60t83.5 -114t30 -172v-464q0 -218 88 -218q6 0 11.5 2t7.5 4l3 1q4 -8 4 -15q-1 -8 -5 -16q-10 -14 -32 -14q-16 0 -30 5t-31 21 t-29 42t-20 74t-8 111v467q0 71 -18.5 127.5t-50 93t-75 60t-90.5 33.5t-100 10q-67 0 -136 -21t-118.5 -49t-95 -62.5t-66 -54.5t-31.5 -32v-805h-41v807q0 217 -88 217q-6 0 -11.5 -1.5t-8.5 -2.5z" />
<glyph unicode="o" horiz-adv-x="1202" d="M82 514q0 259 137.5 405t382.5 146t381.5 -146t136.5 -405q0 -262 -136.5 -408.5t-381.5 -146.5q-246 0 -383 147t-137 408zM123 514q0 -242 126.5 -378t352.5 -136q225 0 351 136t126 378q0 240 -126 375t-351 135t-352 -135t-127 -375z" />
<glyph unicode="p" horiz-adv-x="1140" d="M68 1018q-5 8 -5 15t5 15q10 15 32 15q39 0 71.5 -36.5t43.5 -133.5q27 27 59 52t82 54.5t115.5 47.5t134.5 18q92 0 174.5 -38t144.5 -106t98 -170t36 -223q0 -134 -46 -245t-120 -180t-163.5 -106.5t-180.5 -37.5q-115 0 -197.5 48.5t-132.5 113.5v-531h-41v1217 q0 217 -88 217q-6 0 -11.5 -1.5t-8.5 -2.5zM219 190q5 -10 16 -26.5t40.5 -47t65 -55t91 -43t117.5 -18.5q66 0 132 21t127 65.5t107.5 106t74.5 148.5t28 187q0 221 -120 358.5t-292 137.5q-60 0 -121 -18t-103 -40.5t-81.5 -52.5t-55 -45.5t-26.5 -27.5v-31v-619z" />
<glyph unicode="r" horiz-adv-x="768" d="M68 1020q-5 8 -5 15t5 15q10 15 32 15q17 0 33 -7t34.5 -25.5t31.5 -57.5t18 -96q123 186 322 186q47 0 85 -14t60.5 -34.5t37.5 -46.5t20.5 -48t5.5 -41t-8.5 -27.5t-17.5 -7.5l-9 2q0 28 -8.5 56.5t-27.5 56t-55 45t-85 18.5q-55 0 -107 -21t-86.5 -49t-64 -62t-42 -55 t-18.5 -34v-803h-41v809q0 217 -88 217q-6 0 -11.5 -1.5t-8.5 -2.5z" />
<glyph unicode="s" horiz-adv-x="1079" d="M72 657l413 428h41q303 -407 336 -448q74 -96 104.5 -168t30.5 -154q0 -86 -38 -155.5t-101 -112.5t-139.5 -65.5t-157.5 -22.5q-97 0 -172 28t-117.5 74.5t-64 100t-21.5 110.5q0 48 14.5 87t36.5 63.5t50 41t54 23.5t50 7q31 0 44.5 -13t10.5 -26l-2 -13q-16 11 -43 11 q-63 0 -118.5 -45t-55.5 -136q0 -50 19 -96.5t57 -87t104.5 -64.5t153.5 -24q99 0 187 34t148 108t60 173q0 75 -28.5 141t-100.5 158l-323 433q-62 -59 -162.5 -162.5t-171 -179t-70.5 -76.5z" />
<glyph unicode="t" horiz-adv-x="905" d="M82 903v41h137v336h41v-336h477v-41h-477v-635q0 -143 48.5 -205.5t152.5 -62.5q68 0 129.5 10.5t101 26t69.5 31t43 26.5l13 10l27 -30q-5 -5 -14.5 -12.5t-44.5 -27.5t-76 -35t-108 -27.5t-140 -12.5q-126 0 -184 72.5t-58 236.5v635h-137z" />
<glyph unicode="u" horiz-adv-x="1259" d="M68 1020q-5 8 -5 15t5 15q10 15 32 15q16 0 30 -5t31 -21t29 -42.5t20.5 -74.5t8.5 -111v-487q0 -89 28.5 -154t77.5 -101t106.5 -52.5t125.5 -16.5q74 0 145 25t117.5 58t89 76.5t60 67.5t30.5 45v752h41v-807q0 -63 7.5 -105.5t21.5 -61.5t27.5 -25.5t31.5 -6.5l23 2 q4 -7 4 -14q-1 -8 -5 -14q-10 -12 -32 -12t-38.5 6t-36.5 26t-31.5 68t-12.5 121l-2 2q-28 -39 -65 -76t-92 -78t-129 -65.5t-154 -24.5q-78 0 -143.5 19t-120 60t-85 114t-30.5 172v485q0 217 -88 217q-6 0 -11.5 -1.5t-8.5 -2.5z" />
<glyph unicode="v" horiz-adv-x="1228" d="M51 1031q1 2 1 6q0 7 4 13t16 10.5t30 4.5q37 0 72 -31.5t74 -108t61.5 -128t67.5 -165.5q9 -23 14 -34q5 -13 32.5 -80.5t37 -89.5t34 -80t39.5 -87.5t37.5 -73.5t43 -77.5t42.5 -62.5q39 80 214.5 443t269.5 559l37 -19l-496 -1030h-39q-68 86 -135.5 222t-118 265 t-99 249t-98 199.5t-96.5 90.5q-13 3 -22.5 2t-15.5 -4l-5 -2q-2 3 -2 9z" />
<glyph unicode="w" horiz-adv-x="1781" d="M52 1027q0 3 1 10t5.5 13t17 10.5t30.5 4.5q19 0 36.5 -9t34 -28t30.5 -41t28.5 -56t26 -63.5t25.5 -73.5t24 -77t24 -82q7 -25 11 -37q6 -19 28 -93.5t30.5 -102t29 -89.5t35 -96.5t35.5 -79t43 -78.5l381 965h53l383 -975l322 998l45 -13l-340 -1034h-56l-381 967 l-381 -967h-38q-59 86 -112 222t-90 265t-73 249t-77 199.5t-87 90.5q-13 3 -22.5 2t-15.5 -4l-5 -2q-1 2 -1 5z" />
<glyph unicode="x" horiz-adv-x="1161" d="M82 1034q0 31 51 31q38 0 87.5 -38t109 -111.5t110.5 -145.5t117 -174q9 -17 35 -51l383 510l33 -25l-392 -522q10 -15 31 -46l63 -93t58.5 -84t59 -81t52.5 -67.5t52 -60t46 -42t45 -30t38 -8.5l37 6q2 -4 2 -10q0 -33 -53 -33q-38 0 -89 39.5t-111 113t-113 148 t-118 174.5q-12 14 -26 39l-377 -502l-33 25l385 512q-14 21 -41 61q-55 82 -82.5 122.5t-73 105t-73.5 97t-63 68.5t-62 51t-51 15l-35 -6q-2 6 -2 12z" />
<glyph unicode="y" horiz-adv-x="1128" d="M51 1030l33 17l592 -924q26 93 54.5 220t47.5 220.5t46 193.5t53.5 163t66 104t86.5 41q16 0 26.5 -9t10.5 -20q0 -10 -4 -16q-9 6 -23 6q-52 0 -93 -64t-73.5 -182.5t-60 -246.5t-67.5 -298t-82 -294q-70 -209 -154.5 -300.5t-224.5 -91.5q-74 0 -133.5 39t-59.5 78 q0 13 8 23t17 12q4 -21 20 -41q52 -70 148 -70q61 0 108 19.5t82.5 53t68.5 96.5t58.5 132t59.5 177z" />
<glyph unicode="z" horiz-adv-x="1077" d="M82 0v41l827 942h-753v41h800l2 -55l-815 -928h596q217 0 217 88q0 6 -1.5 12t-2.5 9l-2 2q16 9 30.5 -0.5t14.5 -32.5q0 -16 -5 -30t-21 -31t-42.5 -29t-74.5 -20.5t-111 -8.5h-659z" />
<glyph unicode="{" horiz-adv-x="575" d="M123 489v46q40 0 67 55t27 158q0 53 -19.5 204.5t-19.5 206.5q0 82 17 143.5t40.5 93t56 51t55.5 24t46 4.5q60 0 60 -35q0 -3 -1 -8.5t-1 -8.5q-11 11 -60 11q-18 0 -36 -4t-44 -20.5t-45 -44.5t-33 -81t-14 -125q0 -50 19.5 -202t19.5 -209q0 -58 -8.5 -103t-20 -69 t-25.5 -39.5t-22.5 -20t-13.5 -4.5q90 -36 90 -236q0 -57 -19.5 -209t-19.5 -202q0 -72 14 -125t33 -81t45 -44.5t44 -20.5t36 -4q49 0 60 11q0 -3 1 -8.5t1 -8.5q0 -35 -60 -35q-23 0 -46 4.5t-55.5 24t-56 51t-40.5 93t-17 143.5q0 55 19.5 206.5t19.5 204.5 q0 103 -27 158t-67 55z" />
<glyph unicode="|" horiz-adv-x="778" d="M373 -410v2024h41v-2024h-41z" />
<glyph unicode="}" horiz-adv-x="575" d="M123 -416q0 3 1 8.5t1 8.5q11 -11 59 -11q18 0 36 4t44 20.5t45 44.5t33 81t14 125q0 50 -19.5 202t-19.5 209q0 200 91 236q-5 0 -13.5 4.5t-22.5 20t-26 39.5t-20.5 69t-8.5 103q0 57 19.5 209t19.5 202q0 72 -14 125t-33 81t-45 44.5t-44 20.5t-36 4q-48 0 -59 -11 q0 3 -1 8.5t-1 8.5q0 35 59 35q23 0 46 -4.5t55.5 -24t56 -51t40.5 -93t17 -143.5q0 -55 -19.5 -206.5t-19.5 -204.5q0 -103 27.5 -158t67.5 -55v-46q-40 0 -67.5 -55t-27.5 -158q0 -53 19.5 -204.5t19.5 -206.5q0 -82 -17 -143.5t-40.5 -93t-56 -51t-55.5 -24t-46 -4.5 q-59 0 -59 35z" />
<glyph unicode="~" horiz-adv-x="1081" d="M125 623.5q0 10.5 6 21.5q3 6 8 15t23.5 32.5t39.5 41.5t56.5 33t73.5 15q42 0 88.5 -18.5t88 -45t82 -53t83 -45t78.5 -18.5q38 0 70 16t51 39t33 46t19 39l5 16q2 -1 4.5 -2.5t9 -7t10 -12t3 -17t-6.5 -21.5q-3 -6 -8 -15t-23 -32.5t-39 -41.5t-55.5 -33t-72.5 -15 q-40 0 -86 18.5t-87 45t-81.5 53t-84 45t-81.5 18.5t-70.5 -16t-51.5 -38.5t-33 -45.5t-19 -39l-6 -16q-2 1 -4.5 2.5t-9 6.5t-10 11.5t-3.5 17z" />
<glyph unicode="&#xa1;" horiz-adv-x="462" d="M184 1018q0 47 49 47q46 0 46 -47q0 -22 -11.5 -32.5t-40.5 -10.5q-18 0 -30.5 11.5t-12.5 31.5zM211 -389v1079h41v-1079h-41z" />
<glyph unicode="&#xa2;" horiz-adv-x="1112" d="M82 541q0 149 74.5 270t198.5 187.5t270 66.5q58 0 110 -14l53 135l37 -17l-51 -131q112 -37 184 -118t72 -189q0 -134 -106 -194q-29 -16 -50.5 -8.5t-21.5 26.5q57 6 97 53t40 123q0 94 -64.5 165t-164.5 105l-365 -952q98 -49 230 -49q59 0 120 16t105.5 39t80.5 46 t55 39l18 16l28 -31q-7 -7 -20.5 -18t-56.5 -39.5t-88 -50.5t-111.5 -40t-130.5 -18q-136 0 -244 51l-57 -149l-37 16l57 152q-125 72 -193.5 206.5t-68.5 305.5zM123 541q0 -158 61 -281t176 -192l361 944q-47 12 -96 12q-134 0 -249 -61.5t-184 -173t-69 -248.5z" />
<glyph unicode="&#xa3;" horiz-adv-x="1353" d="M49 395v41h195v269q0 368 143.5 570t435.5 202q200 0 321.5 -111.5t121.5 -278.5q0 -129 -81.5 -225t-191.5 -96q-134 0 -194 106q-16 29 -8.5 50.5t26.5 21.5q6 -57 53 -97t123 -40q94 0 163 83.5t69 196.5q0 150 -110 249.5t-292 99.5q-271 0 -404.5 -191t-133.5 -540 v-269h442v-41h-442v-354h923v-41h-964v395h-195z" />
<glyph unicode="&#xa5;" horiz-adv-x="1079" d="M37 1430q-9 15 1.5 30t33.5 15q67 0 135 -117q182 -311 348 -596l461 692l33 -24l-476 -713v-166h332v-41h-332v-195h332v-41h-332v-274h-41v274h-323v41h323v195h-323v41h323v170l-163 279q-163 280 -195 339q-55 99 -108 99q-6 0 -13.5 -2t-11.5 -4z" />
<glyph unicode="&#xa7;" horiz-adv-x="1226" d="M123 565q0 63 21 118t49.5 90.5t68 65.5t67.5 44.5t56 25.5q-147 95 -147 267q0 127 99.5 213t248.5 86q182 0 268 -71t86 -175q0 -67 -35.5 -111.5t-64.5 -44.5q-11 0 -17.5 5.5t-6.5 10.5l-1 5q3 1 9 4t20.5 14t25.5 25t20 38.5t9 53.5q0 86 -76 145.5t-237 59.5 q-131 0 -219 -74.5t-88 -183.5q0 -86 44.5 -149t115.5 -100t157 -67t172 -61t157 -70.5t115.5 -106.5t44.5 -159q0 -63 -21 -118.5t-50 -91t-69 -65.5t-67.5 -44t-56.5 -25q150 -97 150 -266q0 -127 -99.5 -213t-248.5 -86q-94 0 -165 20.5t-111 56t-59.5 78t-19.5 90.5 q0 67 36 111.5t65 44.5q11 0 17 -5.5t6 -10.5l1 -5q-3 -1 -9 -4t-20.5 -14t-25.5 -25t-20 -38.5t-9 -53.5q0 -86 76.5 -145.5t237.5 -59.5q131 0 219 75t88 184q0 68 -27.5 121.5t-74.5 88.5t-107.5 63t-127.5 50.5t-133.5 45t-127 52.5t-107.5 67.5t-74.5 94.5t-27.5 129z M168 563q0 -67 29.5 -119.5t74.5 -85t111.5 -62.5t128.5 -49.5t137.5 -48t126.5 -55.5q30 11 59.5 25t68.5 42.5t67.5 62t48.5 84t20 108.5q0 79 -39 137t-109 95t-142.5 63t-166.5 59t-153 64q-30 -11 -58.5 -25t-67.5 -42t-67.5 -61t-48.5 -83.5t-20 -108.5z" />
<glyph unicode="&#xa9;" horiz-adv-x="1761" d="M123 717q0 344 207 551t551 207t550.5 -207t206.5 -551t-206.5 -551t-550.5 -207t-551 207t-207 551zM164 717q0 -325 196 -521t521 -196t520.5 195.5t195.5 521.5t-195.5 521.5t-520.5 195.5t-521 -196t-196 -521zM420 711q0 224 137 366t338 142q126 0 214.5 -65.5 t88.5 -176.5q0 -20 -11 -29.5t-23 -8.5l-11 1q4 12 4 37q0 92 -77 146.5t-185 54.5q-185 0 -309.5 -130.5t-124.5 -336.5q0 -195 116.5 -322t286.5 -127q58 0 110.5 11t86 26t59 30.5t36.5 26.5l11 11l31 -29q-4 -5 -13 -13t-40 -28t-66.5 -35.5t-93.5 -28t-121 -12.5 q-187 0 -315.5 138t-128.5 352z" />
<glyph unicode="&#xaa;" horiz-adv-x="804" d="M123 1090q0 166 102 259t246 93q40 0 80.5 -9t60.5 -19l21 -9v-424q0 -121 49 -121v-41q-78 0 -90 121q-95 -113 -227 -113q-114 0 -178 75t-64 188zM164 1090q0 -95 53 -158.5t148 -63.5q70 0 128.5 39.5t98.5 91.5v289q0 98 -4 90q-53 23 -117 23q-128 0 -217.5 -81.5 t-89.5 -229.5z" />
<glyph unicode="&#xab;" horiz-adv-x="1093" d="M123 496v30l424 506l31 -26l-414 -494q56 -66 195 -232.5t216 -256.5l-28 -29zM516 496v30l424 506l31 -26l-414 -494q52 -61 193 -229.5t219 -259.5l-29 -29z" />
<glyph unicode="&#xad;" horiz-adv-x="749" d="M123 698l500 27l4 -41l-500 -27z" />
<glyph unicode="&#xae;" horiz-adv-x="858" d="M61 1135q0 166 101 266t268 100q166 0 266.5 -100t100.5 -266q0 -167 -100.5 -268t-266.5 -101q-167 0 -268 101t-101 268zM102 1135q0 -149 89.5 -238.5t238.5 -89.5q148 0 237 89.5t89 238.5q0 148 -89 236.5t-237 88.5q-149 0 -238.5 -88.5t-89.5 -236.5zM276 1315 l25 33q17 -6 31 -41q50 45 125 45q49 0 79.5 -28.5t30.5 -68.5q0 -26 -11.5 -46.5t-28 -32t-33 -19t-28.5 -9.5l-11 -3l102 -152q6 -9 13.5 -15.5t11.5 -8.5l4 -2l-21 -33q-19 4 -39 35l-112 166q-33 -5 -72 -5v-188h-41v305q0 24 -6.5 41t-12.5 22zM342 1165q77 0 130.5 21 t53.5 69q0 23 -19 39.5t-50 16.5q-70 0 -115 -45v-101z" />
<glyph unicode="&#xb1;" horiz-adv-x="954" d="M123 182v39h708v-39h-708zM123 811v39h334v313h41v-313h333v-39h-333v-315h-41v315h-334z" />
<glyph unicode="&#xb2;" horiz-adv-x="718" d="M123 1268q0 75 64 127.5t163 52.5q109 0 166 -58.5t57 -146.5q0 -53 -36.5 -110.5t-88 -101t-103 -79.5t-87.5 -56l-37 -19h375v-41h-457v41q16 8 42.5 21.5t94 56t119.5 84t94.5 98.5t42.5 106q0 70 -46.5 117t-135.5 47q-82 0 -134 -41t-52 -98q0 -49 25.5 -71.5 t54.5 -22.5q12 0 24 3t18 6l7 3q1 -2 1.5 -5.5t-0.5 -12.5t-5 -15.5t-16.5 -12t-32.5 -5.5q-42 0 -79.5 31.5t-37.5 101.5z" />
<glyph unicode="&#xb3;" horiz-adv-x="677" d="M150 887l22 35q7 -7 21 -17.5t58 -27.5t89 -17q69 0 119.5 34t50.5 99q0 131 -234 131v45q8 0 21.5 1t48 9t60.5 21t47.5 40.5t21.5 64.5q0 45 -35.5 74.5t-93.5 29.5q-33 0 -61.5 -9t-45.5 -21.5t-29.5 -25t-17.5 -21.5l-4 -9l-36 16q2 5 6 12t20.5 26.5t36.5 34 t55 26.5t76 12q77 0 123.5 -39.5t46.5 -105.5q0 -36 -16 -65t-38.5 -44.5t-45 -26t-38.5 -13.5l-16 -3q8 0 21 -1t45.5 -9.5t58 -23.5t46 -48t20.5 -78q0 -83 -63 -128.5t-150 -45.5q-53 0 -100.5 17t-68.5 34z" />
<glyph unicode="&#xb5;" horiz-adv-x="1259" d="M68 1020q-10 15 0 30t32 15q16 0 30 -5t31 -21t29 -42.5t20.5 -74.5t8.5 -111v-487q0 -89 28.5 -154t77.5 -101t106.5 -52.5t125.5 -16.5q74 0 145 25t117.5 58t89 76.5t60 67.5t30.5 45v752h41v-807q0 -217 88 -217q6 0 12 1.5t8 2.5l3 2q9 -16 -0.5 -30.5t-32.5 -14.5 q-20 0 -38 9t-37.5 32.5t-31 74.5t-12.5 124l-2 2q-28 -39 -65 -76t-92 -78t-129 -65.5t-154 -24.5q-115 0 -204 41t-134 131v-541h-41v1219q0 217 -88 217q-6 0 -11.5 -1.5t-8.5 -2.5z" />
<glyph unicode="&#xb6;" horiz-adv-x="1140" d="M123 1018q0 193 109 304.5t292 111.5h494v-41h-62v-1801h-41v1801h-188v-1801h-41v1801h-162q-162 0 -261 -99.5t-99 -275.5q0 -139 111 -241.5t251 -102.5q12 0 24 1.5t18 2.5l5 2q1 -5 0.5 -13t-12 -21t-35.5 -13q-101 0 -194 52t-151 141.5t-58 191.5z" />
<glyph unicode="&#xb9;" horiz-adv-x="614" d="M123 842v41h164v514q-27 0 -52 -9t-41 -21.5t-28 -25t-18 -21.5l-5 -9q-1 1 -3.5 2.5t-7 6t-7 9.5t-1.5 13t7 16q2 3 7 9t22 20.5t37.5 25.5t56 20t74.5 9v-559h164v-41h-369z" />
<glyph unicode="&#xbb;" horiz-adv-x="1093" d="M123 1006l31 26l424 -506v-30l-424 -502l-29 29q78 91 219 259.5t193 229.5zM516 1006l31 26l424 -506v-30l-424 -502l-29 29q78 91 219 259.5t193 229.5z" />
<glyph unicode="&#xbc;" d="M123 842v41h164v514q-27 0 -52 -9t-41 -21.5t-28 -25t-18 -21.5l-5 -9q-1 1 -3.5 2.5t-7 6t-7 9.5t-1.5 13t7 16q2 3 7 9t22 20.5t37.5 25.5t56 20t74.5 9v-559h164v-41h-369zM213 0l817 1473l35 -19l-815 -1472zM793 217v379h41v-338h348v229h41v-487h-41v217h-389z" />
<glyph unicode="&#xbd;" horiz-adv-x="1357" d="M123 842v41h164v514q-27 0 -52 -9t-41 -21.5t-28 -25t-18 -21.5l-5 -9q-1 1 -3.5 2.5t-7 6t-7 9.5t-1.5 13t7 16q2 3 7 9t22 20.5t37.5 25.5t56 20t74.5 9v-559h164v-41h-369zM213 0l817 1473l35 -19l-815 -1472zM762 432q0 75 64 127.5t163 52.5q110 0 166.5 -58 t56.5 -146q0 -53 -36.5 -110.5t-88 -101.5t-103 -80t-88.5 -56l-36 -19h375v-41h-457v41q8 4 22.5 11.5t55 30.5t77.5 47t82.5 59.5t78 69t55 73.5t22.5 76q0 69 -46.5 116t-135.5 47q-82 0 -134 -41t-52 -98q0 -49 25.5 -71.5t54.5 -22.5q12 0 24.5 3t18.5 6l6 3 q1 -2 1.5 -5.5t-0.5 -12.5t-5 -15.5t-16.5 -12t-32.5 -5.5q-42 0 -79.5 31.5t-37.5 101.5z" />
<glyph unicode="&#xbf;" horiz-adv-x="1075" d="M123 -88q0 63 24.5 122.5t64 106t87.5 90t96 81.5t87.5 73t64 72.5t24.5 72.5t-22 62.5t-44 37.5l-22 11q2 16 31 16q25 0 61.5 -33t36.5 -94q0 -34 -14 -66t-44.5 -65.5t-57.5 -57.5t-74 -62q-46 -37 -73.5 -60t-67.5 -63t-62 -73.5t-38.5 -79t-16.5 -91.5 q0 -59 24 -112t70.5 -96.5t124.5 -69t178 -25.5q85 0 154.5 26.5t110.5 69t63 91.5t22 98q0 47 -17.5 84t-45 57.5t-57 30.5t-56.5 10q-56 0 -94.5 -24.5t-54.5 -53.5q-4 -6 -6 -14t-2 -12v-5q-5 2 -9 4q-30 18 -6 62q16 27 62 55.5t110 28.5q27 0 55 -7.5t57.5 -24.5 t52.5 -42t37.5 -64t14.5 -85q0 -45 -15 -90t-46.5 -87.5t-76.5 -75.5t-110.5 -53t-142.5 -20q-110 0 -196.5 29t-137.5 78.5t-77.5 109.5t-26.5 127zM487 1018q0 47 50 47q45 0 45 -47q0 -22 -11.5 -32.5t-40.5 -10.5q-18 0 -30.5 11.5t-12.5 31.5z" />
<glyph unicode="&#xc0;" d="M57 18q13 -8 27 -8q27 0 49.5 14.5t40.5 48.5t31.5 68t28 95t24 106t24.5 123q18 96 28.5 147.5t33.5 147.5t42.5 152t53 139t68.5 133t85.5 108t107 89.5t130.5 53t158 21.5l305 -1456h-41q-5 23 -106 502h-819q-2 -9 -5.5 -29.5t-5.5 -30.5q-11 -63 -17.5 -95.5 t-18 -85.5t-20 -81.5t-22 -67.5t-27.5 -59.5t-32.5 -41.5t-40 -29.5t-47.5 -8.5q-23 0 -33.5 15t-1.5 30zM336 543h803q-35 166 -100 475.5t-83 394.5q-68 -2 -128.5 -21t-109 -48.5t-91.5 -75.5t-75.5 -94t-62.5 -112t-50.5 -121.5t-41 -131t-33.5 -133t-28 -133.5z M686 1855l25 33l311 -241l-25 -33z" />
<glyph unicode="&#xc1;" d="M57 18q13 -8 27 -8q27 0 49.5 14.5t40.5 48.5t31.5 68t28 95t24 106t24.5 123q18 96 28.5 147.5t33.5 147.5t42.5 152t53 139t68.5 133t85.5 108t107 89.5t130.5 53t158 21.5l305 -1456h-41q-5 23 -106 502h-819q-2 -9 -5.5 -29.5t-5.5 -30.5q-11 -63 -17.5 -95.5 t-18 -85.5t-20 -81.5t-22 -67.5t-27.5 -59.5t-32.5 -41.5t-40 -29.5t-47.5 -8.5q-23 0 -33.5 15t-1.5 30zM336 543h803q-35 166 -100 475.5t-83 394.5q-68 -2 -128.5 -21t-109 -48.5t-91.5 -75.5t-75.5 -94t-62.5 -112t-50.5 -121.5t-41 -131t-33.5 -133t-28 -133.5z M686 1645l311 241l25 -33l-311 -241z" />
<glyph unicode="&#xc2;" d="M57 18q13 -8 27 -8q27 0 49.5 14.5t40.5 48.5t31.5 68t28 95t24 106t24.5 123q18 96 28.5 147.5t33.5 147.5t42.5 152t53 139t68.5 133t85.5 108t107 89.5t130.5 53t158 21.5l305 -1456h-41q-5 23 -106 502h-819q-2 -9 -5.5 -29.5t-5.5 -30.5q-11 -63 -17.5 -95.5 t-18 -85.5t-20 -81.5t-22 -67.5t-27.5 -59.5t-32.5 -41.5t-40 -29.5t-47.5 -8.5q-23 0 -33.5 15t-1.5 30zM336 543h803q-35 166 -100 475.5t-83 394.5q-68 -2 -128.5 -21t-109 -48.5t-91.5 -75.5t-75.5 -94t-62.5 -112t-50.5 -121.5t-41 -131t-33.5 -133t-28 -133.5z M596 1649l252 227h12l252 -227l-27 -27l-231 207l-231 -207z" />
<glyph unicode="&#xc3;" d="M57 18q13 -8 27 -8q27 0 49.5 14.5t40.5 48.5t31.5 68t28 95t24 106t24.5 123q18 96 28.5 147.5t33.5 147.5t42.5 152t53 139t68.5 133t85.5 108t107 89.5t130.5 53t158 21.5l305 -1456h-41q-5 23 -106 502h-819q-2 -9 -5.5 -29.5t-5.5 -30.5q-11 -63 -17.5 -95.5 t-18 -85.5t-20 -81.5t-22 -67.5t-27.5 -59.5t-32.5 -41.5t-40 -29.5t-47.5 -8.5q-23 0 -33.5 15t-1.5 30zM336 543h803q-35 166 -100 475.5t-83 394.5q-68 -2 -128.5 -21t-109 -48.5t-91.5 -75.5t-75.5 -94t-62.5 -112t-50.5 -121.5t-41 -131t-33.5 -133t-28 -133.5z M584 1688q1 6 3 15.5t12.5 34.5t25 44.5t42.5 35t64 15.5q29 0 56.5 -16t42.5 -32t38 -46q22 -28 32.5 -39.5t31 -25t41.5 -13.5q25 0 46 12t32.5 28.5t19.5 33.5t11 29l3 12l39 -9q-1 -6 -3.5 -15.5t-13.5 -34.5t-26 -44.5t-43.5 -35t-64.5 -15.5q-29 0 -56.5 16t-42.5 32 t-38 46q-22 28 -32.5 39.5t-31 25t-41.5 13.5q-25 0 -46 -12t-33 -29t-20 -33.5t-11 -28.5l-3 -12z" />
<glyph unicode="&#xc4;" d="M57 18q13 -8 27 -8q27 0 49.5 14.5t40.5 48.5t31.5 68t28 95t24 106t24.5 123q18 96 28.5 147.5t33.5 147.5t42.5 152t53 139t68.5 133t85.5 108t107 89.5t130.5 53t158 21.5l305 -1456h-41q-5 23 -106 502h-819q-2 -9 -5.5 -29.5t-5.5 -30.5q-11 -63 -17.5 -95.5 t-18 -85.5t-20 -81.5t-22 -67.5t-27.5 -59.5t-32.5 -41.5t-40 -29.5t-47.5 -8.5q-23 0 -33.5 15t-1.5 30zM336 543h803q-35 166 -100 475.5t-83 394.5q-68 -2 -128.5 -21t-109 -48.5t-91.5 -75.5t-75.5 -94t-62.5 -112t-50.5 -121.5t-41 -131t-33.5 -133t-28 -133.5z M590 1671q0 35 43 35q13 0 24 -10.5t11 -24.5q0 -39 -41 -39q-37 0 -37 39zM1040 1671q0 35 43 35q13 0 24 -10.5t11 -24.5q0 -39 -41 -39q-37 0 -37 39z" />
<glyph unicode="&#xc5;" d="M57 18q13 -8 27 -8q27 0 49.5 14.5t40.5 48.5t31.5 68t28 95t24 106t24.5 123q18 96 28.5 147.5t33.5 147.5t42.5 152t53 139t68.5 133t85.5 108t107 89.5t130.5 53t158 21.5l305 -1456h-41q-5 23 -106 502h-819q-2 -9 -5.5 -29.5t-5.5 -30.5q-11 -63 -17.5 -95.5 t-18 -85.5t-20 -81.5t-22 -67.5t-27.5 -59.5t-32.5 -41.5t-40 -29.5t-47.5 -8.5q-23 0 -33.5 15t-1.5 30zM336 543h803q-35 166 -100 475.5t-83 394.5q-68 -2 -128.5 -21t-109 -48.5t-91.5 -75.5t-75.5 -94t-62.5 -112t-50.5 -121.5t-41 -131t-33.5 -133t-28 -133.5z M666 1812q0 85 51.5 137t136.5 52q84 0 136 -52.5t52 -136.5t-52 -136t-136 -52q-85 0 -136.5 51.5t-51.5 136.5zM702 1812q0 -69 41.5 -110t110.5 -41q68 0 110 41t42 110t-42 110.5t-110 41.5q-69 0 -110.5 -41.5t-41.5 -110.5z" />
<glyph unicode="&#xc6;" horiz-adv-x="1937" d="M57 18q13 -8 27 -8q42 0 74.5 40t53 108t41.5 159.5t38.5 194t45.5 210.5t61 210.5t87 194t120.5 159.5t165 108t218.5 40q31 0 232 -0.5t371 -0.5t233 1v-41q-261 0 -442.5 -0.5t-267 -1t-114.5 -0.5v-613h545v-41h-545v-696h822v-41h-862v502h-633q-3 -15 -8 -46 q-11 -60 -16.5 -90.5t-16.5 -84.5t-20 -83.5t-23 -71t-28.5 -64.5t-33 -46t-41.5 -33t-49 -10q-23 0 -33.5 15t-1.5 30zM336 543h625v848q-87 -3 -162 -31.5t-131 -73t-104 -112.5t-81 -136t-62 -158.5t-47.5 -166t-37.5 -170.5z" />
<glyph unicode="&#xc7;" horiz-adv-x="1304" d="M102 702q0 170 53 315.5t144 245t215 156t264 56.5q117 0 214.5 -41.5t158.5 -126t61 -197.5q0 -56 -18 -101t-44 -71t-57.5 -43.5t-55 -24t-38.5 -6.5q-25 0 -37 11t-11 23l1 11q15 -8 31 -8q17 0 39 5.5t49 20.5t48.5 37.5t36.5 60.5t15 85q0 149 -114.5 236.5 t-278.5 87.5q-131 0 -247.5 -53.5t-202 -148t-135.5 -232t-50 -298.5q0 -153 46.5 -285t126.5 -223t189 -142.5t232 -51.5q85 0 162 16.5t126.5 40.5t86.5 48t54 41l16 16l30 -27q-6 -7 -18.5 -19t-56 -42.5t-94 -53.5t-133.5 -42t-173 -19q-131 0 -247.5 55t-202 151 t-135.5 235.5t-50 301.5zM624 -417l1 11q22 -6 51 -6q52 0 96.5 28.5t44.5 90.5q0 36 -17.5 62.5t-42.5 38.5t-50 18.5t-43 7.5h-17v166h41v-131q7 0 18.5 -1.5t40.5 -11.5t51.5 -25.5t41 -48t18.5 -75.5q0 -77 -55.5 -117.5t-126.5 -40.5q-27 0 -40 11.5t-12 22.5z" />
<glyph unicode="&#xc8;" horiz-adv-x="1130" d="M154 0v1434h864v-41h-823v-615h544v-41h-544v-696h821v-41h-862zM420 1855l24 33l312 -241l-25 -33z" />
<glyph unicode="&#xc9;" horiz-adv-x="1130" d="M154 0v1434h864v-41h-823v-615h544v-41h-544v-696h821v-41h-862zM420 1645l311 241l25 -33l-312 -241z" />
<glyph unicode="&#xca;" horiz-adv-x="1130" d="M154 0v1434h864v-41h-823v-615h544v-41h-544v-696h821v-41h-862zM330 1649l252 227h12l252 -227l-27 -27l-231 207l-232 -207z" />
<glyph unicode="&#xcb;" horiz-adv-x="1130" d="M154 0v1434h864v-41h-823v-615h544v-41h-544v-696h821v-41h-862zM324 1671q0 35 43 35q13 0 23.5 -10.5t10.5 -24.5q0 -39 -41 -39q-36 0 -36 39zM774 1671q0 35 43 35q13 0 24 -10.5t11 -24.5q0 -39 -41 -39q-37 0 -37 39z" />
<glyph unicode="&#xcc;" horiz-adv-x="495" d="M92 1855l25 33l311 -241l-25 -33zM150 1409q-10 15 0 30t32 15q16 0 30 -5t31 -21t29 -42.5t20.5 -74.5t8.5 -111v-1200h-41v1198q0 217 -88 217q-6 0 -11.5 -1.5t-8.5 -3.5z" />
<glyph unicode="&#xcd;" horiz-adv-x="495" d="M92 1645l311 241l25 -33l-311 -241zM150 1409q-10 15 0 30t32 15q16 0 30 -5t31 -21t29 -42.5t20.5 -74.5t8.5 -111v-1200h-41v1198q0 217 -88 217q-6 0 -11.5 -1.5t-8.5 -3.5z" />
<glyph unicode="&#xce;" horiz-adv-x="495" d="M2 1649l252 227h12l252 -227l-26 -27l-232 207l-231 -207zM150 1409q-10 15 0 30t32 15q16 0 30 -5t31 -21t29 -42.5t20.5 -74.5t8.5 -111v-1200h-41v1198q0 217 -88 217q-6 0 -11.5 -1.5t-8.5 -3.5z" />
<glyph unicode="&#xcf;" horiz-adv-x="495" d="M-4 1671q0 35 43 35q13 0 24 -10.5t11 -24.5q0 -39 -41 -39q-37 0 -37 39zM150 1409q-10 15 0 30t32 15q16 0 30 -5t31 -21t29 -42.5t20.5 -74.5t8.5 -111v-1200h-41v1198q0 217 -88 217q-6 0 -11.5 -1.5t-8.5 -3.5zM446 1671q0 35 43 35q13 0 24 -10.5t11 -24.5 q0 -39 -41 -39q-37 0 -37 39z" />
<glyph unicode="&#xd2;" horiz-adv-x="1447" d="M102 719q0 340 170 548t455 208q188 0 329 -95t215.5 -266t74.5 -395q0 -225 -74.5 -397t-215.5 -267.5t-329 -95.5q-285 0 -455 209t-170 551zM143 719q0 -213 71 -375.5t203.5 -253t309.5 -90.5q175 0 307 90.5t201.5 253t69.5 375.5q0 322 -156.5 518.5t-421.5 196.5 q-177 0 -309.5 -89.5t-203.5 -251.5t-71 -374zM555 1855l25 33l311 -241l-25 -33z" />
<glyph unicode="&#xd3;" horiz-adv-x="1447" d="M102 719q0 340 170 548t455 208q188 0 329 -95t215.5 -266t74.5 -395q0 -225 -74.5 -397t-215.5 -267.5t-329 -95.5q-285 0 -455 209t-170 551zM143 719q0 -213 71 -375.5t203.5 -253t309.5 -90.5q175 0 307 90.5t201.5 253t69.5 375.5q0 322 -156.5 518.5t-421.5 196.5 q-177 0 -309.5 -89.5t-203.5 -251.5t-71 -374zM555 1645l311 241l25 -33l-311 -241z" />
<glyph unicode="&#xd4;" horiz-adv-x="1447" d="M102 719q0 340 170 548t455 208q188 0 329 -95t215.5 -266t74.5 -395q0 -225 -74.5 -397t-215.5 -267.5t-329 -95.5q-285 0 -455 209t-170 551zM143 719q0 -213 71 -375.5t203.5 -253t309.5 -90.5q175 0 307 90.5t201.5 253t69.5 375.5q0 322 -156.5 518.5t-421.5 196.5 q-177 0 -309.5 -89.5t-203.5 -251.5t-71 -374zM465 1649l252 227h12l252 -227l-27 -27l-231 207l-231 -207z" />
<glyph unicode="&#xd5;" horiz-adv-x="1447" d="M102 719q0 340 170 548t455 208q188 0 329 -95t215.5 -266t74.5 -395q0 -225 -74.5 -397t-215.5 -267.5t-329 -95.5q-285 0 -455 209t-170 551zM143 719q0 -213 71 -375.5t203.5 -253t309.5 -90.5q175 0 307 90.5t201.5 253t69.5 375.5q0 322 -156.5 518.5t-421.5 196.5 q-177 0 -309.5 -89.5t-203.5 -251.5t-71 -374zM453 1688q1 6 3 15.5t12.5 34.5t25 44.5t42.5 35t64 15.5q29 0 56.5 -16t42.5 -32t38 -46q22 -28 32.5 -39.5t31 -25t41.5 -13.5q25 0 46 12t32.5 28.5t19.5 33.5t11 29l3 12l39 -9q-1 -6 -3.5 -15.5t-13.5 -34.5t-26 -44.5 t-43.5 -35t-64.5 -15.5q-29 0 -56.5 16t-42.5 32t-38 46q-22 28 -32.5 39.5t-31 25t-41.5 13.5q-40 0 -68 -29t-36 -57l-9 -29z" />
<glyph unicode="&#xd6;" horiz-adv-x="1447" d="M102 719q0 340 170 548t455 208q188 0 329 -95t215.5 -266t74.5 -395q0 -225 -74.5 -397t-215.5 -267.5t-329 -95.5q-285 0 -455 209t-170 551zM143 719q0 -213 71 -375.5t203.5 -253t309.5 -90.5q175 0 307 90.5t201.5 253t69.5 375.5q0 322 -156.5 518.5t-421.5 196.5 q-177 0 -309.5 -89.5t-203.5 -251.5t-71 -374zM459 1671q0 35 43 35q13 0 24 -10.5t11 -24.5q0 -39 -41 -39q-37 0 -37 39zM909 1671q0 35 43 35q13 0 24 -10.5t11 -24.5q0 -39 -41 -39q-37 0 -37 39z" />
<glyph unicode="&#xd7;" horiz-adv-x="833" d="M123 344l264 264l-248 250l29 29l248 -250l266 266l29 -29l-267 -266l252 -250l-28 -28l-252 250l-264 -265z" />
<glyph unicode="&#xd8;" horiz-adv-x="1447" d="M102 719q0 340 170 548t455 208q140 0 262 -58l58 129l36 -14l-59 -133q153 -88 237.5 -265.5t84.5 -414.5q0 -225 -74.5 -397t-215.5 -267.5t-329 -95.5q-157 0 -295 72l-67 -158l-39 14l71 166q-140 93 -217.5 266t-77.5 400zM143 719q0 -212 71.5 -375.5t201.5 -251.5 l557 1286q-115 56 -246 56q-177 0 -309.5 -89.5t-203.5 -251.5t-71 -374zM451 70q124 -70 276 -70q175 0 307 90.5t201.5 253t69.5 375.5q0 222 -77.5 389t-219.5 252z" />
<glyph unicode="&#xd9;" horiz-adv-x="1519" d="M88 1409q-9 16 0.5 30.5t32.5 14.5q16 0 30 -5t31 -21t29 -42.5t20.5 -74.5t8.5 -111v-549q0 -651 542 -651q142 0 247.5 47.5t169.5 135t95 204.5t31 264v783h41v-783q0 -157 -33.5 -281t-102 -217.5t-182 -143.5t-266.5 -50q-583 0 -583 692v547q0 217 -88 217 q-6 0 -12 -1.5t-9 -3.5zM614 1855l25 33l311 -241l-24 -33z" />
<glyph unicode="&#xda;" horiz-adv-x="1519" d="M88 1409q-9 16 0.5 30.5t32.5 14.5q16 0 30 -5t31 -21t29 -42.5t20.5 -74.5t8.5 -111v-549q0 -651 542 -651q142 0 247.5 47.5t169.5 135t95 204.5t31 264v783h41v-783q0 -157 -33.5 -281t-102 -217.5t-182 -143.5t-266.5 -50q-583 0 -583 692v547q0 217 -88 217 q-6 0 -12 -1.5t-9 -3.5zM614 1645l312 241l24 -33l-311 -241z" />
<glyph unicode="&#xdb;" horiz-adv-x="1519" d="M88 1409q-9 16 0.5 30.5t32.5 14.5q16 0 30 -5t31 -21t29 -42.5t20.5 -74.5t8.5 -111v-549q0 -651 542 -651q142 0 247.5 47.5t169.5 135t95 204.5t31 264v783h41v-783q0 -157 -33.5 -281t-102 -217.5t-182 -143.5t-266.5 -50q-583 0 -583 692v547q0 217 -88 217 q-6 0 -12 -1.5t-9 -3.5zM524 1649l252 227h12l252 -227l-26 -27l-232 207l-231 -207z" />
<glyph unicode="&#xdc;" horiz-adv-x="1519" d="M88 1409q-9 16 0.5 30.5t32.5 14.5q16 0 30 -5t31 -21t29 -42.5t20.5 -74.5t8.5 -111v-549q0 -651 542 -651q142 0 247.5 47.5t169.5 135t95 204.5t31 264v783h41v-783q0 -157 -33.5 -281t-102 -217.5t-182 -143.5t-266.5 -50q-583 0 -583 692v547q0 217 -88 217 q-6 0 -12 -1.5t-9 -3.5zM518 1671q0 35 43 35q13 0 24 -10.5t11 -24.5q0 -39 -41 -39q-37 0 -37 39zM969 1671q0 35 43 35q13 0 24 -10.5t11 -24.5q0 -39 -41 -39q-37 0 -37 39z" />
<glyph unicode="&#xdd;" horiz-adv-x="1079" d="M37 1430q-9 15 1.5 30t33.5 15q67 0 135 -117q182 -311 348 -596l461 692l33 -24l-476 -713v-717h-41v721l-163 279q-163 280 -195 339q-55 99 -108 99q-6 0 -13.5 -2t-11.5 -4zM371 1645l311 241l25 -33l-312 -241z" />
<glyph unicode="&#xde;" horiz-adv-x="1187" d="M88 1409q-9 16 0.5 30.5t32.5 14.5q41 0 78.5 -54.5t38.5 -166.5v-244q171 219 393 219q115 0 209 -39.5t153 -105t91 -146t32 -165.5q0 -248 -161 -398.5t-414 -150.5q-158 0 -301 61v-264h-41v1186q0 122 -26 175.5t-62 53.5q-6 0 -12 -1.5t-9 -3.5zM240 307 q146 -63 301 -63q237 0 385.5 139t148.5 369q0 78 -29 151t-83 132.5t-140.5 95.5t-191.5 36q-64 0 -126.5 -22.5t-105 -53t-80 -68t-54 -60t-25.5 -37.5v-619z" />
<glyph unicode="&#xdf;" d="M109 0q2 613 2 903q0 159 64.5 290t180 206.5t258.5 75.5q187 0 311 -121.5t124 -304.5q0 -66 -20 -120.5t-40 -93.5t-20 -67q0 -20 21.5 -42.5t54.5 -44.5t70.5 -54t70.5 -67.5t54.5 -89t21.5 -114.5q0 -175 -108.5 -277t-262.5 -102q-63 0 -112.5 14.5t-78 36.5 t-46.5 51t-24.5 55t-6.5 52q0 93 49 93q6 0 12.5 -2.5t9.5 -5.5t2 -3q-4 -2 -9 -7t-14 -25.5t-9 -47.5t9.5 -53t32.5 -54t71 -45.5t114 -17.5q136 0 233 91t97 247q0 69 -30 125t-73.5 92t-86.5 66.5t-73 62.5t-30 66q0 35 20 76t40 92.5t20 112.5q0 164 -112.5 274.5 t-281.5 110.5q-198 0 -330 -153t-132 -378l-2 -903h-41z" />
<glyph unicode="&#xe0;" horiz-adv-x="1198" d="M82 430q0 123 34 227.5t93.5 178.5t139.5 126.5t171.5 77.5t190.5 25q124 0 245 -51q2 -1 5 -4t10 -18.5t13 -38t10.5 -67t4.5 -100.5v-548q0 -122 25.5 -173t62.5 -51q6 0 12 1.5t9 2.5l2 2q9 -16 -0.5 -30.5t-32.5 -14.5q-19 0 -36 9t-36 32t-31.5 71t-15.5 116 q-28 -39 -65 -76t-92 -78t-129 -65.5t-154 -24.5q-138 0 -238.5 65t-149 170t-48.5 236zM123 430q0 -120 43.5 -216t134.5 -155t217 -59q77 0 149.5 26.5t119.5 61.5t88 79.5t57.5 68t25.5 40.5v510q0 75 -5.5 123t-10.5 59l-6 11q-105 45 -225 45q-116 0 -220.5 -38 t-187.5 -110t-131.5 -187.5t-48.5 -258.5zM543 1503l24 33l312 -242l-25 -32z" />
<glyph unicode="&#xe1;" horiz-adv-x="1198" d="M82 430q0 123 34 227.5t93.5 178.5t139.5 126.5t171.5 77.5t190.5 25q124 0 245 -51q2 -1 5 -4t10 -18.5t13 -38t10.5 -67t4.5 -100.5v-548q0 -122 25.5 -173t62.5 -51q6 0 12 1.5t9 2.5l2 2q9 -16 -0.5 -30.5t-32.5 -14.5q-19 0 -36 9t-36 32t-31.5 71t-15.5 116 q-28 -39 -65 -76t-92 -78t-129 -65.5t-154 -24.5q-138 0 -238.5 65t-149 170t-48.5 236zM123 430q0 -120 43.5 -216t134.5 -155t217 -59q77 0 149.5 26.5t119.5 61.5t88 79.5t57.5 68t25.5 40.5v510q0 75 -5.5 123t-10.5 59l-6 11q-105 45 -225 45q-116 0 -220.5 -38 t-187.5 -110t-131.5 -187.5t-48.5 -258.5zM543 1294l311 242l25 -33l-312 -241z" />
<glyph unicode="&#xe2;" horiz-adv-x="1198" d="M82 430q0 123 34 227.5t93.5 178.5t139.5 126.5t171.5 77.5t190.5 25q124 0 245 -51q2 -1 5 -4t10 -18.5t13 -38t10.5 -67t4.5 -100.5v-548q0 -122 25.5 -173t62.5 -51q6 0 12 1.5t9 2.5l2 2q9 -16 -0.5 -30.5t-32.5 -14.5q-19 0 -36 9t-36 32t-31.5 71t-15.5 116 q-28 -39 -65 -76t-92 -78t-129 -65.5t-154 -24.5q-138 0 -238.5 65t-149 170t-48.5 236zM123 430q0 -120 43.5 -216t134.5 -155t217 -59q77 0 149.5 26.5t119.5 61.5t88 79.5t57.5 68t25.5 40.5v510q0 75 -5.5 123t-10.5 59l-6 11q-105 45 -225 45q-116 0 -220.5 -38 t-187.5 -110t-131.5 -187.5t-48.5 -258.5zM453 1309l252 227h12l252 -227l-27 -27l-231 207l-232 -207z" />
<glyph unicode="&#xe3;" horiz-adv-x="1198" d="M82 430q0 123 34 227.5t93.5 178.5t139.5 126.5t171.5 77.5t190.5 25q124 0 245 -51q2 -1 5 -4t10 -18.5t13 -38t10.5 -67t4.5 -100.5v-548q0 -122 25.5 -173t62.5 -51q6 0 12 1.5t9 2.5l2 2q9 -16 -0.5 -30.5t-32.5 -14.5q-19 0 -36 9t-36 32t-31.5 71t-15.5 116 q-28 -39 -65 -76t-92 -78t-129 -65.5t-154 -24.5q-138 0 -238.5 65t-149 170t-48.5 236zM123 430q0 -120 43.5 -216t134.5 -155t217 -59q77 0 149.5 26.5t119.5 61.5t88 79.5t57.5 68t25.5 40.5v510q0 75 -5.5 123t-10.5 59l-6 11q-105 45 -225 45q-116 0 -220.5 -38 t-187.5 -110t-131.5 -187.5t-48.5 -258.5zM440 1368q1 6 3 15.5t12.5 34.5t25.5 44.5t43 35t64 15.5q29 0 56.5 -16t42.5 -32t38 -46q41 -52 62 -65q20 -13 42 -13q25 0 46 12t33 28.5t20 33.5t11 29l3 12l39 -8q-1 -6 -3.5 -15.5t-13.5 -34.5t-26.5 -44.5t-44 -35 t-64.5 -15.5q-29 0 -56.5 16t-42.5 32t-38 46q-41 52 -62 65q-20 13 -42 13q-40 0 -68 -28.5t-36 -57.5l-9 -29z" />
<glyph unicode="&#xe4;" horiz-adv-x="1198" d="M82 430q0 123 34 227.5t93.5 178.5t139.5 126.5t171.5 77.5t190.5 25q124 0 245 -51q2 -1 5 -4t10 -18.5t13 -38t10.5 -67t4.5 -100.5v-548q0 -122 25.5 -173t62.5 -51q6 0 12 1.5t9 2.5l2 2q9 -16 -0.5 -30.5t-32.5 -14.5q-19 0 -36 9t-36 32t-31.5 71t-15.5 116 q-28 -39 -65 -76t-92 -78t-129 -65.5t-154 -24.5q-138 0 -238.5 65t-149 170t-48.5 236zM123 430q0 -120 43.5 -216t134.5 -155t217 -59q77 0 149.5 26.5t119.5 61.5t88 79.5t57.5 68t25.5 40.5v510q0 75 -5.5 123t-10.5 59l-6 11q-105 45 -225 45q-116 0 -220.5 -38 t-187.5 -110t-131.5 -187.5t-48.5 -258.5zM446 1440q0 35 43 35q13 0 24 -10.5t11 -24.5q0 -39 -41 -39q-37 0 -37 39zM897 1440q0 35 43 35q13 0 24 -10.5t11 -24.5q0 -39 -41 -39q-37 0 -37 39z" />
<glyph unicode="&#xe5;" horiz-adv-x="1198" d="M82 430q0 123 34 227.5t93.5 178.5t139.5 126.5t171.5 77.5t190.5 25q124 0 245 -51q2 -1 5 -4t10 -18.5t13 -38t10.5 -67t4.5 -100.5v-548q0 -122 25.5 -173t62.5 -51q6 0 12 1.5t9 2.5l2 2q9 -16 -0.5 -30.5t-32.5 -14.5q-19 0 -36 9t-36 32t-31.5 71t-15.5 116 q-28 -39 -65 -76t-92 -78t-129 -65.5t-154 -24.5q-138 0 -238.5 65t-149 170t-48.5 236zM123 430q0 -120 43.5 -216t134.5 -155t217 -59q77 0 149.5 26.5t119.5 61.5t88 79.5t57.5 68t25.5 40.5v510q0 75 -5.5 123t-10.5 59l-6 11q-105 45 -225 45q-116 0 -220.5 -38 t-187.5 -110t-131.5 -187.5t-48.5 -258.5zM522 1442q0 85 52 136.5t137 51.5q84 0 136 -52t52 -136t-52.5 -136.5t-135.5 -52.5q-85 0 -137 52t-52 137zM559 1442q0 -69 41.5 -110.5t110.5 -41.5q68 0 109.5 41.5t41.5 110.5t-41.5 110t-109.5 41q-69 0 -110.5 -41 t-41.5 -110z" />
<glyph unicode="&#xe6;" horiz-adv-x="1474" d="M82 387q0 122 31.5 232t84 189.5t119.5 138.5t139.5 88.5t141.5 29.5q100 0 152 -35q8 -18 16 -65q81 48 155.5 74t165.5 26q107 0 189 -64t82 -174q0 -62 -29.5 -111.5t-80.5 -83t-125.5 -57t-158.5 -35.5t-186 -18v-297q3 -9 8.5 -24t28 -54t51.5 -68.5t81 -54 t114 -24.5q56 0 108 16t85.5 38.5t59 45t36.5 38.5l12 16l31 -29q-5 -7 -14 -18t-41 -39.5t-68 -50.5t-92.5 -40t-116.5 -18q-65 0 -121.5 22t-91 53.5t-59 62.5t-34.5 53l-10 22q-4 -9 -12.5 -23t-38 -51t-63.5 -65t-89 -51t-114 -23q-168 0 -257 118.5t-89 309.5zM125 387 q0 -172 78 -279.5t225 -107.5q59 0 112.5 25.5t88 61.5t60 72t37.5 61l11 26v540q0 75 -3 127t-6 67l-3 15q-45 29 -127 29q-61 0 -127 -27.5t-127.5 -83.5t-110.5 -130.5t-78.5 -178t-29.5 -217.5zM772 920q6 -53 6 -134v-223q539 28 539 264q0 91 -69.5 144t-160.5 53 q-146 0 -315 -104z" />
<glyph unicode="&#xe7;" horiz-adv-x="1118" d="M82 528q0 116 44.5 217t119 170.5t174.5 109.5t209 40q100 0 192 -40t152.5 -118.5t60.5 -175.5q0 -134 -106 -194q-29 -16 -50.5 -8.5t-21.5 26.5q57 6 97 53t40 123q0 64 -32 120.5t-84 93.5t-117 58t-131 21q-135 0 -250.5 -62t-185.5 -177t-70 -257q0 -148 60 -267.5 t176 -190t270 -70.5q59 0 120 16t105.5 39t80.5 46t55 39l18 16l28 -31q-7 -7 -20.5 -18t-56.5 -39.5t-88 -50.5t-111.5 -40t-130.5 -18q-167 0 -292.5 76.5t-190 205t-64.5 287.5zM513 -417l1 11q22 -6 51 -6q52 0 97 28.5t45 90.5q0 36 -17.5 62.5t-42.5 38.5t-50 18.5 t-43 7.5h-17v166h41v-131q7 0 18.5 -1.5t40.5 -11.5t51.5 -25.5t41 -48t18.5 -75.5q0 -77 -55.5 -117.5t-127.5 -40.5q-27 0 -40 11.5t-12 22.5z" />
<glyph unicode="&#xe8;" horiz-adv-x="1099" d="M82 467q0 187 80 324.5t212 205.5t296 68q129 0 219 -64t90 -176q0 -56 -25.5 -101t-68.5 -76.5t-108.5 -55t-136 -37.5t-160.5 -22.5t-173 -11.5t-182 -3q-2 -16 -2 -51q0 -206 130 -336.5t357 -130.5q66 0 129 16t106 38.5t76.5 45t49.5 38.5l16 16l31 -29 q-6 -7 -18 -18t-52.5 -39.5t-84.5 -50.5t-113 -40t-140 -18q-246 0 -387 142t-141 366zM129 559q93 0 172 2.5t164 10t152 20t129 33t103 47.5t65 66t24 87q0 93 -78 146t-190 53q-138 0 -252.5 -53t-192 -159.5t-96.5 -252.5zM504 1503l24 33l312 -242l-25 -32z" />
<glyph unicode="&#xe9;" horiz-adv-x="1099" d="M82 467q0 187 80 324.5t212 205.5t296 68q129 0 219 -64t90 -176q0 -56 -25.5 -101t-68.5 -76.5t-108.5 -55t-136 -37.5t-160.5 -22.5t-173 -11.5t-182 -3q-2 -16 -2 -51q0 -206 130 -336.5t357 -130.5q66 0 129 16t106 38.5t76.5 45t49.5 38.5l16 16l31 -29 q-6 -7 -18 -18t-52.5 -39.5t-84.5 -50.5t-113 -40t-140 -18q-246 0 -387 142t-141 366zM129 559q93 0 172 2.5t164 10t152 20t129 33t103 47.5t65 66t24 87q0 93 -78 146t-190 53q-138 0 -252.5 -53t-192 -159.5t-96.5 -252.5zM504 1294l311 242l25 -33l-312 -241z" />
<glyph unicode="&#xea;" horiz-adv-x="1099" d="M82 467q0 187 80 324.5t212 205.5t296 68q129 0 219 -64t90 -176q0 -56 -25.5 -101t-68.5 -76.5t-108.5 -55t-136 -37.5t-160.5 -22.5t-173 -11.5t-182 -3q-2 -16 -2 -51q0 -206 130 -336.5t357 -130.5q66 0 129 16t106 38.5t76.5 45t49.5 38.5l16 16l31 -29 q-6 -7 -18 -18t-52.5 -39.5t-84.5 -50.5t-113 -40t-140 -18q-246 0 -387 142t-141 366zM129 559q93 0 172 2.5t164 10t152 20t129 33t103 47.5t65 66t24 87q0 93 -78 146t-190 53q-138 0 -252.5 -53t-192 -159.5t-96.5 -252.5zM414 1309l252 227h12l252 -227l-27 -27 l-231 207l-232 -207z" />
<glyph unicode="&#xeb;" horiz-adv-x="1099" d="M82 467q0 187 80 324.5t212 205.5t296 68q129 0 219 -64t90 -176q0 -56 -25.5 -101t-68.5 -76.5t-108.5 -55t-136 -37.5t-160.5 -22.5t-173 -11.5t-182 -3q-2 -16 -2 -51q0 -206 130 -336.5t357 -130.5q66 0 129 16t106 38.5t76.5 45t49.5 38.5l16 16l31 -29 q-6 -7 -18 -18t-52.5 -39.5t-84.5 -50.5t-113 -40t-140 -18q-246 0 -387 142t-141 366zM129 559q93 0 172 2.5t164 10t152 20t129 33t103 47.5t65 66t24 87q0 93 -78 146t-190 53q-138 0 -252.5 -53t-192 -159.5t-96.5 -252.5zM408 1440q0 35 43 35q13 0 23.5 -10.5 t10.5 -24.5q0 -39 -41 -39q-36 0 -36 39zM858 1440q0 35 43 35q13 0 24 -10.5t11 -24.5q0 -39 -41 -39q-37 0 -37 39z" />
<glyph unicode="&#xec;" horiz-adv-x="444" d="M23 1503l24 33l311 -242l-24 -32zM119 1020q-9 16 0.5 30.5t32.5 14.5q20 0 38 -9.5t37.5 -34t31 -78.5t11.5 -132v-811h-41v809q0 217 -88 217q-6 0 -11.5 -1.5t-7.5 -2.5z" />
<glyph unicode="&#xed;" horiz-adv-x="444" d="M23 1294l311 242l24 -33l-311 -241zM119 1020q-9 16 0.5 30.5t32.5 14.5q20 0 38 -9.5t37.5 -34t31 -78.5t11.5 -132v-811h-41v809q0 217 -88 217q-6 0 -11.5 -1.5t-7.5 -2.5z" />
<glyph unicode="&#xee;" horiz-adv-x="444" d="M-68 1309l252 227h13l252 -227l-27 -27l-232 207l-231 -207zM119 1020q-9 16 0.5 30.5t32.5 14.5q20 0 38 -9.5t37.5 -34t31 -78.5t11.5 -132v-811h-41v809q0 217 -88 217q-6 0 -11.5 -1.5t-7.5 -2.5z" />
<glyph unicode="&#xef;" horiz-adv-x="444" d="M-74 1440q0 35 43 35q13 0 24 -10.5t11 -24.5q0 -39 -41 -39q-37 0 -37 39zM119 1020q-9 16 0.5 30.5t32.5 14.5q20 0 38 -9.5t37.5 -34t31 -78.5t11.5 -132v-811h-41v809q0 217 -88 217q-6 0 -11.5 -1.5t-7.5 -2.5zM377 1440q0 35 43 35q13 0 24 -10.5t11 -24.5 q0 -39 -41 -39q-37 0 -37 39z" />
<glyph unicode="&#xf2;" horiz-adv-x="1202" d="M82 514q0 259 137.5 405t382.5 146t381.5 -146t136.5 -405q0 -262 -136.5 -408.5t-381.5 -146.5q-246 0 -383 147t-137 408zM123 514q0 -242 126.5 -378t352.5 -136q225 0 351 136t126 378q0 240 -126 375t-351 135t-352 -135t-127 -375zM432 1503l25 33l311 -242 l-25 -32z" />
<glyph unicode="&#xf3;" horiz-adv-x="1202" d="M82 514q0 259 137.5 405t382.5 146t381.5 -146t136.5 -405q0 -262 -136.5 -408.5t-381.5 -146.5q-246 0 -383 147t-137 408zM123 514q0 -242 126.5 -378t352.5 -136q225 0 351 136t126 378q0 240 -126 375t-351 135t-352 -135t-127 -375zM432 1294l311 242l25 -33 l-311 -241z" />
<glyph unicode="&#xf4;" horiz-adv-x="1202" d="M82 514q0 259 137.5 405t382.5 146t381.5 -146t136.5 -405q0 -262 -136.5 -408.5t-381.5 -146.5q-246 0 -383 147t-137 408zM123 514q0 -242 126.5 -378t352.5 -136q225 0 351 136t126 378q0 240 -126 375t-351 135t-352 -135t-127 -375zM342 1309l252 227h12l252 -227 l-27 -27l-231 207l-231 -207z" />
<glyph unicode="&#xf5;" horiz-adv-x="1202" d="M82 514q0 259 137.5 405t382.5 146t381.5 -146t136.5 -405q0 -262 -136.5 -408.5t-381.5 -146.5q-246 0 -383 147t-137 408zM123 514q0 -242 126.5 -378t352.5 -136q225 0 351 136t126 378q0 240 -126 375t-351 135t-352 -135t-127 -375zM330 1368q1 6 3 15.5t12.5 34.5 t25 44.5t42.5 35t64 15.5q29 0 56.5 -16t42.5 -32t38 -46q22 -28 32.5 -39.5t31 -25t41.5 -13.5q25 0 46 12t32.5 28.5t19.5 33.5t11 29l3 12l39 -8q-1 -6 -3.5 -15.5t-13.5 -34.5t-26 -44.5t-43.5 -35t-64.5 -15.5q-29 0 -56.5 16t-42.5 32t-38 46q-22 28 -32.5 39.5 t-31 25t-41.5 13.5q-25 0 -46 -12t-32.5 -28.5t-19.5 -33.5t-11 -29l-3 -12z" />
<glyph unicode="&#xf6;" horiz-adv-x="1202" d="M82 514q0 259 137.5 405t382.5 146t381.5 -146t136.5 -405q0 -262 -136.5 -408.5t-381.5 -146.5q-246 0 -383 147t-137 408zM123 514q0 -242 126.5 -378t352.5 -136q225 0 351 136t126 378q0 240 -126 375t-351 135t-352 -135t-127 -375zM336 1440q0 35 43 35 q13 0 24 -10.5t11 -24.5q0 -39 -41 -39q-37 0 -37 39zM786 1440q0 35 43 35q13 0 24 -10.5t11 -24.5q0 -39 -41 -39q-37 0 -37 39z" />
<glyph unicode="&#xf7;" horiz-adv-x="1036" d="M123 672v39h790v-39h-790zM467 395q0 23 11.5 33t39.5 10q18 0 30.5 -11.5t12.5 -31.5q0 -47 -49 -47q-45 0 -45 47zM467 991q0 23 11.5 33t39.5 10q18 0 30.5 -11.5t12.5 -31.5q0 -47 -49 -47q-45 0 -45 47z" />
<glyph unicode="&#xf8;" horiz-adv-x="1202" d="M82 514q0 259 137.5 405t382.5 146q99 0 197 -31l55 123l37 -14l-53 -123q137 -59 209.5 -189t72.5 -317q0 -262 -136.5 -408.5t-381.5 -146.5q-123 0 -213 37l-57 -131l-39 14l57 131q-130 62 -199 191t-69 313zM123 514q0 -169 63 -288.5t181 -176.5l415 946 q-85 29 -180 29q-225 0 -352 -135t-127 -375zM406 33q82 -33 196 -33q225 0 351 136t126 378q0 172 -67.5 292.5t-192.5 174.5z" />
<glyph unicode="&#xf9;" horiz-adv-x="1259" d="M68 1020q-10 15 0 30t32 15q16 0 30 -5t31 -21t29 -42.5t20.5 -74.5t8.5 -111v-487q0 -89 28.5 -154t77.5 -101t106.5 -52.5t125.5 -16.5q74 0 145 25t117.5 58t89 76.5t60 67.5t30.5 45v752h41v-807q0 -63 7.5 -105.5t21.5 -61.5t27.5 -25.5t31.5 -6.5l23 2 q9 -15 -0.5 -27.5t-32.5 -12.5q-22 0 -38.5 6t-36.5 26t-31.5 68t-12.5 121l-2 2q-28 -39 -65 -76t-92 -78t-129 -65.5t-154 -24.5q-78 0 -143.5 19t-120 60t-85 114t-30.5 172v485q0 217 -88 217q-6 0 -11.5 -1.5t-8.5 -2.5zM410 1503l24 33l311 -242l-24 -32z" />
<glyph unicode="&#xfa;" horiz-adv-x="1259" d="M68 1020q-10 15 0 30t32 15q16 0 30 -5t31 -21t29 -42.5t20.5 -74.5t8.5 -111v-487q0 -89 28.5 -154t77.5 -101t106.5 -52.5t125.5 -16.5q74 0 145 25t117.5 58t89 76.5t60 67.5t30.5 45v752h41v-807q0 -63 7.5 -105.5t21.5 -61.5t27.5 -25.5t31.5 -6.5l23 2 q9 -15 -0.5 -27.5t-32.5 -12.5q-22 0 -38.5 6t-36.5 26t-31.5 68t-12.5 121l-2 2q-28 -39 -65 -76t-92 -78t-129 -65.5t-154 -24.5q-78 0 -143.5 19t-120 60t-85 114t-30.5 172v485q0 217 -88 217q-6 0 -11.5 -1.5t-8.5 -2.5zM410 1294l311 242l24 -33l-311 -241z" />
<glyph unicode="&#xfb;" horiz-adv-x="1259" d="M68 1020q-10 15 0 30t32 15q16 0 30 -5t31 -21t29 -42.5t20.5 -74.5t8.5 -111v-487q0 -89 28.5 -154t77.5 -101t106.5 -52.5t125.5 -16.5q74 0 145 25t117.5 58t89 76.5t60 67.5t30.5 45v752h41v-807q0 -63 7.5 -105.5t21.5 -61.5t27.5 -25.5t31.5 -6.5l23 2 q9 -15 -0.5 -27.5t-32.5 -12.5q-22 0 -38.5 6t-36.5 26t-31.5 68t-12.5 121l-2 2q-28 -39 -65 -76t-92 -78t-129 -65.5t-154 -24.5q-78 0 -143.5 19t-120 60t-85 114t-30.5 172v485q0 217 -88 217q-6 0 -11.5 -1.5t-8.5 -2.5zM319 1309l252 227h13l252 -227l-27 -27 l-231 207l-232 -207z" />
<glyph unicode="&#xfc;" horiz-adv-x="1259" d="M68 1020q-10 15 0 30t32 15q16 0 30 -5t31 -21t29 -42.5t20.5 -74.5t8.5 -111v-487q0 -89 28.5 -154t77.5 -101t106.5 -52.5t125.5 -16.5q74 0 145 25t117.5 58t89 76.5t60 67.5t30.5 45v752h41v-807q0 -63 7.5 -105.5t21.5 -61.5t27.5 -25.5t31.5 -6.5l23 2 q9 -15 -0.5 -27.5t-32.5 -12.5q-22 0 -38.5 6t-36.5 26t-31.5 68t-12.5 121l-2 2q-28 -39 -65 -76t-92 -78t-129 -65.5t-154 -24.5q-78 0 -143.5 19t-120 60t-85 114t-30.5 172v485q0 217 -88 217q-6 0 -11.5 -1.5t-8.5 -2.5zM313 1440q0 35 43 35q13 0 24 -10.5t11 -24.5 q0 -39 -41 -39q-37 0 -37 39zM764 1440q0 35 43 35q13 0 24 -10.5t11 -24.5q0 -39 -41 -39q-37 0 -37 39z" />
<glyph unicode="&#xfd;" horiz-adv-x="1128" d="M51 1030l33 17l592 -924q26 93 54.5 220t47.5 220.5t46 193.5t53.5 163t66 104t86.5 41q16 0 26.5 -9t10.5 -20q0 -10 -4 -16q-9 6 -23 6q-52 0 -93 -64t-73.5 -182.5t-60 -246.5t-67.5 -298t-82 -294q-70 -209 -154.5 -300.5t-224.5 -91.5q-74 0 -133.5 39t-59.5 78 q0 13 8 23t17 12q4 -21 20 -41q52 -70 148 -70q61 0 108 19.5t82.5 53t68.5 96.5t58.5 132t59.5 177zM391 1294l311 242l25 -33l-311 -241z" />
<glyph unicode="&#xff;" horiz-adv-x="1128" d="M51 1030l33 17l592 -924q26 93 54.5 220t47.5 220.5t46 193.5t53.5 163t66 104t86.5 41q16 0 26.5 -9t10.5 -20q0 -10 -4 -16q-9 6 -23 6q-52 0 -93 -64t-73.5 -182.5t-60 -246.5t-67.5 -298t-82 -294q-70 -209 -154.5 -300.5t-224.5 -91.5q-74 0 -133.5 39t-59.5 78 q0 13 8 23t17 12q4 -21 20 -41q52 -70 148 -70q61 0 108 19.5t82.5 53t68.5 96.5t58.5 132t59.5 177zM295 1440q0 35 43 35q13 0 24 -10.5t11 -24.5q0 -39 -41 -39q-37 0 -37 39zM745 1440q0 35 43 35q13 0 24 -10.5t11 -24.5q0 -39 -41 -39q-37 0 -37 39z" />
<glyph unicode="&#x152;" horiz-adv-x="1929" d="M102 719q0 340 170 548t455 208q155 0 250 -41h840v-41h-824v-615h545v-41h-545v-696h822v-41h-836q-95 -41 -252 -41q-285 0 -455 209t-170 551zM143 719q0 -213 71 -375.5t203.5 -253t309.5 -90.5q142 0 225 33v1366q-88 35 -225 35q-177 0 -309.5 -89.5t-203.5 -251.5 t-71 -374z" />
<glyph unicode="&#x153;" horiz-adv-x="1474" d="M82 514q0 150 52 276t146 200.5t209 74.5q171 0 273 -102q82 48 157.5 75t167.5 27q107 0 189 -64t82 -174q0 -62 -29.5 -111.5t-80.5 -83t-125.5 -57t-158.5 -35.5t-186 -18v-422q3 -4 8.5 -11t28 -24t51.5 -30t81 -24t114 -11q56 0 108 16t85.5 38.5t59 45t36.5 38.5 l12 16l31 -29q-5 -7 -14 -18t-41 -39.5t-68 -50.5t-92.5 -40t-116.5 -18q-65 0 -121.5 10.5t-90 25t-58 29t-33.5 24.5l-10 11l-11 -11t-31.5 -24t-52 -30t-72 -24t-92.5 -11q-190 0 -298.5 147.5t-108.5 407.5zM123 514q0 -238 102 -376t269 -138q50 0 93.5 12.5t69.5 30 t45 34.5t27 29l8 13v805q-3 4 -9 11t-28.5 24t-49 30t-70.5 24t-93 11q-153 0 -258.5 -146t-105.5 -364zM778 563q539 28 539 264q0 91 -69.5 144t-160.5 53q-86 0 -158.5 -27t-150.5 -75v-359z" />
<glyph unicode="&#x178;" horiz-adv-x="1079" d="M37 1430q-9 15 1.5 30t33.5 15q67 0 135 -117q182 -311 348 -596l461 692l33 -24l-476 -713v-717h-41v721l-163 279q-163 280 -195 339q-55 99 -108 99q-6 0 -13.5 -2t-11.5 -4zM274 1671q0 35 43 35q13 0 24 -10.5t11 -24.5q0 -39 -41 -39q-37 0 -37 39zM725 1671 q0 35 43 35q13 0 24 -10.5t11 -24.5q0 -39 -41 -39q-37 0 -37 39z" />
<glyph unicode="&#x2000;" horiz-adv-x="1000" />
<glyph unicode="&#x2001;" horiz-adv-x="2001" />
<glyph unicode="&#x2002;" horiz-adv-x="1000" />
<glyph unicode="&#x2003;" horiz-adv-x="2001" />
<glyph unicode="&#x2004;" horiz-adv-x="667" />
<glyph unicode="&#x2005;" horiz-adv-x="500" />
<glyph unicode="&#x2006;" horiz-adv-x="333" />
<glyph unicode="&#x2007;" horiz-adv-x="333" />
<glyph unicode="&#x2008;" horiz-adv-x="250" />
<glyph unicode="&#x2009;" horiz-adv-x="400" />
<glyph unicode="&#x200a;" horiz-adv-x="111" />
<glyph unicode="&#x2010;" horiz-adv-x="749" d="M123 698l500 27l4 -41l-500 -27z" />
<glyph unicode="&#x2011;" horiz-adv-x="749" d="M123 698l500 27l4 -41l-500 -27z" />
<glyph unicode="&#x2012;" horiz-adv-x="749" d="M123 698l500 27l4 -41l-500 -27z" />
<glyph unicode="&#x2013;" horiz-adv-x="1269" d="M123 698l1016 27l8 -41l-1016 -27z" />
<glyph unicode="&#x2014;" horiz-adv-x="2293" d="M123 698l2032 27l16 -41l-2032 -27z" />
<glyph unicode="&#x201c;" horiz-adv-x="598" d="M123 1227q0 53 20.5 105.5t40.5 79.5l21 26l24 -33q-7 -9 -18 -25.5t-29 -63t-18 -89.5q0 -37 13 -70t25 -47l13 -14l-31 -27q-7 7 -17 19t-27 53.5t-17 85.5zM369 1227q0 53 20.5 105.5t40.5 79.5l21 26l24 -33q-7 -9 -18 -25.5t-29 -63t-18 -89.5q0 -37 13 -70t25 -47 l13 -14l-31 -27q-7 7 -17 19t-27 53.5t-17 85.5z" />
<glyph unicode="&#x201d;" horiz-adv-x="598" d="M123 1102q7 9 18 25.5t29 63t18 89.5q0 37 -13 70t-25 47l-13 14l31 27q7 -7 17 -19t27 -53.5t17 -85.5q0 -53 -20.5 -105.5t-40.5 -78.5l-21 -27zM369 1102q7 9 18 25.5t29 63t18 89.5q0 37 -13 70t-25 47l-13 14l31 27q7 -7 17 -19t27 -53.5t17 -85.5 q0 -53 -20.5 -105.5t-40.5 -78.5l-21 -27z" />
<glyph unicode="&#x202f;" horiz-adv-x="400" />
<glyph unicode="&#x205f;" horiz-adv-x="500" />
<glyph unicode="&#x20ac;" horiz-adv-x="1507" d="M123 575v41h156q-5 67 -5 84q0 46 7 111h-158v41h162q28 190 120.5 333.5t223 216.5t280.5 73q90 0 172 -18t135 -44.5t93 -52.5t57 -44l18 -18l-30 -26q-6 7 -17.5 17.5t-52 38.5t-88 49.5t-125 39t-162.5 17.5q-139 0 -261 -68t-208.5 -201.5t-113.5 -312.5h637v-41 h-641q-7 -65 -7 -111q0 -30 4 -84h644v-41h-639q35 -259 197.5 -417t387.5 -158q85 0 162 16.5t126.5 40.5t86.5 48t54 41l16 16l30 -27q-6 -7 -18.5 -19t-56 -42.5t-94 -53.5t-133.5 -42t-173 -19q-240 0 -415.5 169.5t-210.5 446.5h-160z" />
<glyph unicode="&#x2122;" horiz-adv-x="1308" d="M123 1393v41h424v-41h-180v-551h-41v551h-203zM678 842v592h43l211 -373l211 373h43v-592h-41v514q-35 -61 -108.5 -190t-80.5 -142h-51l-186 330v-512h-41z" />
<glyph unicode="&#xe000;" horiz-adv-x="1064" d="M0 0v1065h1065v-1065h-1065z" />
</font>
</defs>
</svg>
